<?xml version="1.0" encoding="UTF-8"?><svg id="b" xmlns="http://www.w3.org/2000/svg" viewBox="0 0 535.76 909.09"><defs><style>.d{letter-spacing:.01em;}.e{letter-spacing:0em;}.f{letter-spacing:-.04em;}.g{letter-spacing:0em;}.h{fill:#ffff36;font-family:HouschkaPro-Medium, 'Houschka Pro';font-size:90px;}.i{letter-spacing:-.02em;}.j{letter-spacing:-.01em;}.k{letter-spacing:-.05em;}.l{letter-spacing:-.01em;}.m{letter-spacing:0em;}.n{letter-spacing:-.01em;}.o{letter-spacing:-.05em;}</style></defs><g id="c"><text class="h" transform="translate(0 76.5)"><tspan x="0" y="0">Sample </tspan><tspan class="n" x="303.02" y="0">t</tspan><tspan x="333.63" y="0">e</tspan><tspan class="d" x="380.79" y="0">x</tspan><tspan x="424.61" y="0">t is</tspan><tspan x="0" y="90">he</tspan><tspan class="e" x="97.02" y="90">r</tspan><tspan x="130.14" y="90">e, b</tspan><tspan class="e" x="265.41" y="90">r</tspan><tspan x="298.53" y="90">othe</tspan><tspan class="o" x="478.34" y="90">r</tspan><tspan class="m" x="507.59" y="90">.</tspan><tspan x="0" y="180">C</tspan><tspan class="i" x="59.31" y="180">r</tspan><tspan x="91.8" y="180">ash</tspan><tspan x="0" y="270">flowers and</tspan><tspan x="0" y="360">burn em up in</tspan><tspan x="0" y="450">somewhe</tspan><tspan class="e" x="367.91" y="450">r</tspan><tspan x="401.03" y="450">e</tspan><tspan class="f" x="0" y="540">c</tspan><tspan class="g" x="39.15" y="540">ool.</tspan><tspan x="0" y="630">No</tspan><tspan class="k" x="117.63" y="630">w</tspan><tspan class="g" x="175.41" y="630">, Wh</tspan><tspan class="j" x="357.84" y="630">a</tspan><tspan class="g" x="399.33" y="630">t</tspan><tspan x="0" y="720">cha ma </tspan><tspan class="l" x="297" y="720">c</tspan><tspan x="338.4" y="720">all</tspan><tspan x="0" y="810">it?</tspan></text></g></svg>