<?xml version="1.0" encoding="UTF-8"?><svg id="b" xmlns="http://www.w3.org/2000/svg" viewBox="0 0 709.61 924.8"><defs><style>.d{fill:#ffff36;}</style></defs><g id="c"><g><path class="d" d="M66.12,42.96c0,10.32-10.88,17.92-29.82,17.92-12.71,0-24.92-3.84-33.97-11.52l4.9-5.04c8.47,7.2,17.86,10.32,29.49,10.32,14.04,0,22.26-4.24,22.26-11.2s-8.56-8.48-24.26-9.76c-15.53-1.28-30.4-4.56-30.4-15.6S18.11,1.52,33.64,1.52c12.63,0,23.01,4.24,29.74,10l-5.48,4.48c-5.65-5.36-14.2-8.16-23.92-8.24-10.38-.08-22.51,2.72-22.51,10.08,0,6.96,10.97,8.4,24.67,9.44,17.69,1.36,29.99,4.64,29.99,15.68Z"/><path class="d" d="M124.43,35.04v15.68c0,3.28,.58,5.92,2.16,8.48h-7.23c-1.33-2.16-1.91-4.48-1.91-6.96v-.16c-3.57,4.72-10.72,8.72-20.52,8.72s-23.09-3.84-23.09-15.44,13.21-15.44,23.09-15.44,16.95,3.92,20.52,8.72v-3.6c0-10.56-6.23-15.36-18.69-15.36-7.23,0-12.71,1.92-17.78,5.04l-3.16-4.8c5.32-3.44,13.87-5.92,22.1-5.92,15.2,0,24.5,7.2,24.5,21.04Zm-6.81,9.52c-3.9-6.8-12.46-9.2-20.1-9.2-6.65,0-16.95,1.84-16.95,10s10.3,10,16.95,10c7.64,0,16.2-2.48,20.1-9.2v-1.6Z"/><path class="d" d="M226.43,34.4v24.8h-6.73v-24.32c0-9.2-4.4-15.04-14.54-15.04-8.64,0-14.87,4.4-18.52,12.08,.08,.8,.08,1.68,.08,2.48v19.44l.08,5.36h-6.81v-24.32c0-9.2-4.4-15.04-14.54-15.04-8.56,0-14.7,4.24-18.36,11.84v27.52h-6.81V15.6h6.81v9.04c3.65-6.4,11.05-10.64,20.1-10.64,10.47,0,16.28,5.12,18.44,12.56,3.49-7.68,11.63-12.56,21.26-12.56,13.87,0,19.52,9.04,19.52,20.4Z"/><path class="d" d="M249.52,50.8v24.4h-6.81V15.6h6.81v8.4c4.15-6.08,11.88-10,21.85-10,15.12,0,24.59,9.28,24.59,23.36s-9.47,23.44-24.59,23.44c-9.97,0-17.69-3.92-21.85-10Zm0-20.32v13.84c4.65,7.76,11.71,10.64,20.1,10.64,12.46,0,19.44-6.32,19.44-17.6s-6.98-17.52-19.44-17.52c-8.39,0-15.45,2.88-20.1,10.64Z"/><path class="d" d="M309.25,59.2V0h6.81V59.2h-6.81Z"/><path class="d" d="M357.26,55.28c8.97,0,14.37-2.16,19.6-6.88l4.48,4.56c-6.15,5.36-13.71,7.92-24.42,7.92-17.53,0-27.58-9.12-27.58-23.44s10.05-23.52,27.16-23.52c16.12,0,26.42,8.4,26.42,23.44,0,.72-.08,1.12-.17,1.44h-46.52c.66,11.04,8.97,16.48,21.02,16.48Zm-20.68-21.92h39.46c-1.99-9.68-9.72-13.84-19.44-13.84-10.47,0-18.27,4.64-20.02,13.84Z"/><path class="d" d="M450.46,56.72c-3.57,2.4-8.06,4.08-13.12,4.08-8.14,0-14.87-4.16-14.87-12.64V21.36h-9.14v-5.76h9.14V5.44h6.81V15.6h20.85v5.76h-20.85v25.84c0,5.36,4.24,7.76,9.22,7.76,3.57,0,6.56-1.28,9.55-2.96l2.41,4.72Z"/><path class="d" d="M484.01,55.28c8.97,0,14.37-2.16,19.6-6.88l4.49,4.56c-6.15,5.36-13.71,7.92-24.42,7.92-17.53,0-27.58-9.12-27.58-23.44s10.05-23.52,27.16-23.52c16.12,0,26.41,8.4,26.41,23.44,0,.72-.08,1.12-.17,1.44h-46.52c.66,11.04,8.97,16.48,21.02,16.48Zm-20.68-21.92h39.46c-1.99-9.68-9.72-13.84-19.44-13.84-10.47,0-18.27,4.64-20.02,13.84Z"/><path class="d" d="M543.73,37.2l20.85,22h-8.56l-16.78-17.92-16.78,17.92h-8.39l20.93-21.92-20.77-21.68h8.56l16.61,17.76,16.61-17.76h8.39l-20.68,21.6Z"/><path class="d" d="M605.37,56.72c-3.57,2.4-8.06,4.08-13.12,4.08-8.14,0-14.87-4.16-14.87-12.64V21.36h-9.14v-5.76h9.14V5.44h6.81V15.6h20.85v5.76h-20.85v25.84c0,5.36,4.24,7.76,9.22,7.76,3.57,0,6.56-1.28,9.55-2.96l2.41,4.72Z"/><path class="d" d="M639.17,4.64c0-2.4,2.08-4.24,4.82-4.24s4.82,1.84,4.82,4.24-2.08,4.24-4.82,4.24-4.82-1.92-4.82-4.24Zm8.22,54.56h-6.81V15.6h6.81V59.2Z"/><path class="d" d="M709.61,46.72c0,7.84-8.22,14.16-23.67,14.16-10.38,0-19.44-3.44-26.41-9.36l4.32-3.92c5.9,4.8,12.79,7.84,22.26,7.84s16.78-2.8,16.78-8.08-6.73-6.88-18.27-7.84c-11.96-.96-23.34-3.44-23.34-12.4s9.97-13.2,23.34-13.2c9.14,0,17.69,3.52,22.68,7.44l-4.32,4.4c-4.24-3.52-10.3-6.32-18.69-6.4-6.89-.08-16.28,1.52-16.28,7.36,0,5.44,8.14,6.48,18.03,7.2,13.62,1.04,23.59,4.32,23.59,12.8Z"/><path class="d" d="M55.74,130.56v24.64h-6.81v-24.16c0-9.84-5.07-15.2-15.28-15.2-8.81,0-16.12,3.92-20.27,12v27.36H6.56v-59.2h6.81v24.64c4.24-6.56,11.88-10.64,21.6-10.64,14.04,0,20.77,8.64,20.77,20.56Z"/><path class="d" d="M96.52,151.28c8.97,0,14.37-2.16,19.6-6.88l4.49,4.56c-6.15,5.36-13.71,7.92-24.42,7.92-17.53,0-27.58-9.12-27.58-23.44s10.05-23.52,27.16-23.52c16.12,0,26.41,8.4,26.41,23.44,0,.72-.08,1.12-.17,1.44h-46.52c.66,11.04,8.97,16.48,21.02,16.48Zm-20.68-21.92h39.46c-1.99-9.68-9.72-13.84-19.44-13.84-10.47,0-18.27,4.64-20.02,13.84Z"/><path class="d" d="M134.73,155.2v-43.6h6.81v10.72c3.65-7.36,12.71-11.6,22.51-11.6v5.92c-10.3,0-19.11,4.4-22.51,13.12v25.44h-6.81Z"/><path class="d" d="M195.28,151.28c8.97,0,14.37-2.16,19.6-6.88l4.49,4.56c-6.15,5.36-13.71,7.92-24.42,7.92-17.53,0-27.58-9.12-27.58-23.44s10.05-23.52,27.16-23.52c16.12,0,26.41,8.4,26.41,23.44,0,.72-.08,1.12-.17,1.44h-46.52c.66,11.04,8.97,16.48,21.02,16.48Zm-20.68-21.92h39.46c-1.99-9.68-9.72-13.84-19.44-13.84-10.47,0-18.27,4.64-20.02,13.84Z"/><path class="d" d="M241.47,152.24c0,4.24-2.49,10.24-6.81,14.16l-2.24-1.84c3.32-3.68,4.57-6,4.98-8.88-.25,.24-.83,.32-1.33,.32-2.57,0-4.65-1.84-4.65-4.48,0-2.48,2.08-4.4,4.9-4.4,2.99,0,5.15,2,5.15,5.12Z"/><path class="d" d="M335.16,133.44c0,14.08-9.47,23.36-24.59,23.36-9.97,0-17.69-3.92-21.85-10v8.4h-6.81v-59.2h6.81v24c4.15-6.08,11.88-10,21.85-10,15.12,0,24.59,9.36,24.59,23.44Zm-6.89,0c0-11.28-6.98-17.6-19.44-17.6-8.39,0-15.45,2.88-20.1,10.64v13.84c4.65,7.76,11.71,10.64,20.1,10.64,12.46,0,19.44-6.32,19.44-17.52Z"/><path class="d" d="M348.2,155.2v-43.6h6.81v10.72c3.65-7.36,12.71-11.6,22.51-11.6v5.92c-10.3,0-19.11,4.4-22.51,13.12v25.44h-6.81Z"/><path class="d" d="M380.84,133.44c0-14.4,10.22-23.52,27.49-23.52s27.5,9.12,27.5,23.52-10.22,23.44-27.5,23.44-27.49-9.04-27.49-23.44Zm48.1,0c0-11.84-8.8-17.68-20.6-17.68s-20.6,5.84-20.6,17.68,8.8,17.6,20.6,17.6,20.6-5.84,20.6-17.6Z"/><path class="d" d="M478.53,152.72c-3.57,2.4-8.06,4.08-13.12,4.08-8.14,0-14.87-4.16-14.87-12.64v-26.8h-9.14v-5.76h9.14v-10.16h6.81v10.16h20.85v5.76h-20.85v25.84c0,5.36,4.24,7.76,9.22,7.76,3.57,0,6.56-1.28,9.55-2.96l2.41,4.72Z"/><path class="d" d="M537.26,130.56v24.64h-6.81v-24.16c0-9.84-5.07-15.2-15.28-15.2-8.81,0-16.12,3.92-20.27,12v27.36h-6.81v-59.2h6.81v24.64c4.24-6.56,11.88-10.64,21.6-10.64,14.04,0,20.77,8.64,20.77,20.56Z"/><path class="d" d="M578.04,151.28c8.97,0,14.37-2.16,19.6-6.88l4.49,4.56c-6.15,5.36-13.71,7.92-24.42,7.92-17.53,0-27.58-9.12-27.58-23.44s10.05-23.52,27.16-23.52c16.12,0,26.41,8.4,26.41,23.44,0,.72-.08,1.12-.17,1.44h-46.52c.66,11.04,8.97,16.48,21.02,16.48Zm-20.68-21.92h39.46c-1.99-9.68-9.72-13.84-19.44-13.84-10.47,0-18.27,4.64-20.02,13.84Z"/><path class="d" d="M616.25,155.2v-43.6h6.81v10.72c3.65-7.36,12.71-11.6,22.51-11.6v5.92c-10.3,0-19.11,4.4-22.51,13.12v25.44h-6.81Z"/><path class="d" d="M646.57,151.6c0-2.56,2.08-4.48,4.98-4.48s4.98,1.92,4.98,4.48-2.08,4.4-4.98,4.4-4.98-1.84-4.98-4.4Z"/><path class="d" d="M61.8,235.92l6.65,3.2c-5.48,8.4-15.62,13.76-29.82,13.76-21.68,0-34.97-11.52-34.97-29.68s13.29-29.68,35.22-29.68c13.95,0,24.09,5.44,29.57,13.76l-6.65,3.2c-4.57-7.44-12.88-10.72-23.01-10.72-16.86,0-27.99,8-27.99,23.44s11.13,23.44,27.99,23.44c10.13,0,18.52-3.2,23.01-10.72Z"/><path class="d" d="M80.24,251.2v-43.6h6.81v10.72c3.65-7.36,12.71-11.6,22.51-11.6v5.92c-10.3,0-19.11,4.4-22.51,13.12v25.44h-6.81Z"/><path class="d" d="M163.89,227.04v15.68c0,3.28,.58,5.92,2.16,8.48h-7.23c-1.33-2.16-1.91-4.48-1.91-6.96v-.16c-3.57,4.72-10.72,8.72-20.52,8.72s-23.09-3.84-23.09-15.44,13.21-15.44,23.09-15.44,16.95,3.92,20.52,8.72v-3.6c0-10.56-6.23-15.36-18.69-15.36-7.23,0-12.71,1.92-17.78,5.04l-3.16-4.8c5.32-3.44,13.87-5.92,22.1-5.92,15.2,0,24.5,7.2,24.5,21.04Zm-6.81,9.52c-3.9-6.8-12.46-9.2-20.1-9.2-6.65,0-16.95,1.84-16.95,10s10.3,10,16.95,10c7.64,0,16.2-2.48,20.1-9.2v-1.6Z"/><path class="d" d="M225.27,238.72c0,7.84-8.22,14.16-23.67,14.16-10.38,0-19.44-3.44-26.41-9.36l4.32-3.92c5.9,4.8,12.79,7.84,22.26,7.84s16.78-2.8,16.78-8.08-6.73-6.88-18.27-7.84c-11.96-.96-23.34-3.44-23.34-12.4s9.97-13.2,23.34-13.2c9.14,0,17.69,3.52,22.68,7.44l-4.32,4.4c-4.24-3.52-10.3-6.32-18.69-6.4-6.89-.08-16.28,1.52-16.28,7.36,0,5.44,8.14,6.48,18.03,7.2,13.62,1.04,23.59,4.32,23.59,12.8Z"/><path class="d" d="M286.32,226.56v24.64h-6.81v-24.16c0-9.84-5.07-15.2-15.28-15.2-8.81,0-16.12,3.92-20.27,12v27.36h-6.81v-59.2h6.81v24.64c4.24-6.56,11.88-10.64,21.6-10.64,14.04,0,20.77,8.64,20.77,20.56Z"/><path class="d" d="M15.95,298.96v4.64h20.77v5.6H15.95v38h-6.81v-38H0v-5.6H9.14v-3.6c0-9.44,6.98-13.6,15.03-13.6,4.57,0,9.55,1.36,13.12,4l-3.24,4.16c-3.24-2.32-6.06-3.12-9.22-3.12-4.98,0-8.89,2-8.89,7.52Zm37.46-10.96v59.2h-6.81v-59.2h6.81Z"/><path class="d" d="M66.7,325.44c0-14.4,10.22-23.52,27.49-23.52s27.5,9.12,27.5,23.52-10.22,23.44-27.5,23.44-27.49-9.04-27.49-23.44Zm48.1,0c0-11.84-8.8-17.68-20.6-17.68s-20.6,5.84-20.6,17.68,8.8,17.6,20.6,17.6,20.6-5.84,20.6-17.6Z"/><path class="d" d="M204.42,303.6l-16.95,43.6h-6.98l-14.37-36.48-14.54,36.48h-6.98l-16.95-43.6h7.06l13.79,36.16,14.29-36.16h6.65l14.29,36.16,13.79-36.16h6.89Z"/><path class="d" d="M238.31,343.28c8.97,0,14.37-2.16,19.6-6.88l4.49,4.56c-6.15,5.36-13.71,7.92-24.42,7.92-17.53,0-27.58-9.12-27.58-23.44s10.05-23.52,27.16-23.52c16.12,0,26.41,8.4,26.41,23.44,0,.72-.08,1.12-.17,1.44h-46.52c.66,11.04,8.97,16.48,21.02,16.48Zm-20.68-21.92h39.46c-1.99-9.68-9.72-13.84-19.44-13.84-10.47,0-18.27,4.64-20.02,13.84Z"/><path class="d" d="M276.52,347.2v-43.6h6.81v10.72c3.65-7.36,12.71-11.6,22.51-11.6v5.92c-10.3,0-19.11,4.4-22.51,13.12v25.44h-6.81Z"/><path class="d" d="M360.08,334.72c0,7.84-8.22,14.16-23.67,14.16-10.38,0-19.44-3.44-26.41-9.36l4.32-3.92c5.9,4.8,12.79,7.84,22.26,7.84s16.78-2.8,16.78-8.08-6.73-6.88-18.27-7.84c-11.96-.96-23.34-3.44-23.34-12.4s9.97-13.2,23.34-13.2c9.14,0,17.69,3.52,22.68,7.44l-4.32,4.4c-4.24-3.52-10.3-6.32-18.69-6.4-6.89-.08-16.28,1.52-16.28,7.36,0,5.44,8.14,6.48,18.03,7.2,13.62,1.04,23.59,4.32,23.59,12.8Z"/><path class="d" d="M444.64,323.04v15.68c0,3.28,.58,5.92,2.16,8.48h-7.23c-1.33-2.16-1.91-4.48-1.91-6.96v-.16c-3.57,4.72-10.71,8.72-20.52,8.72s-23.09-3.84-23.09-15.44,13.21-15.44,23.09-15.44,16.95,3.92,20.52,8.72v-3.6c0-10.56-6.23-15.36-18.69-15.36-7.23,0-12.71,1.92-17.78,5.04l-3.16-4.8c5.32-3.44,13.87-5.92,22.1-5.92,15.2,0,24.5,7.2,24.5,21.04Zm-6.81,9.52c-3.9-6.8-12.46-9.2-20.1-9.2-6.65,0-16.95,1.84-16.95,10s10.3,10,16.95,10c7.64,0,16.2-2.48,20.1-9.2v-1.6Z"/><path class="d" d="M460.51,347.2v-43.6h6.81v9.04c4.24-6.56,11.88-10.64,21.6-10.64,14.04,0,20.77,8.64,20.77,20.56v24.64h-6.81v-24.16c0-9.84-5.07-15.2-15.28-15.2-8.81,0-16.12,3.92-20.27,12v27.36h-6.81Z"/><path class="d" d="M568.99,312v-24h6.81v59.2h-6.81v-8.4c-4.15,6.08-11.88,10-21.85,10-15.12,0-24.59-9.28-24.59-23.36s9.47-23.44,24.59-23.44c9.97,0,17.69,3.92,21.85,10Zm0,20.32v-13.84c-4.65-7.76-11.71-10.64-20.1-10.64-12.46,0-19.44,6.32-19.44,17.6s6.98,17.52,19.44,17.52c8.39,0,15.45-2.88,20.1-10.64Z"/><path class="d" d="M59.81,421.44c0,14.08-9.47,23.36-24.59,23.36-9.97,0-17.69-3.92-21.85-10v8.4H6.56v-59.2h6.81v24c4.15-6.08,11.88-10,21.85-10,15.12,0,24.59,9.36,24.59,23.44Zm-6.89,0c0-11.28-6.98-17.6-19.44-17.6-8.39,0-15.45,2.88-20.1,10.64v13.84c4.65,7.76,11.71,10.64,20.1,10.64,12.46,0,19.44-6.32,19.44-17.52Z"/><path class="d" d="M121.86,399.6v43.6h-6.81v-9.04c-4.24,6.56-11.88,10.64-21.6,10.64-14.04,0-20.77-8.64-20.77-20.56v-24.64h6.81v24.16c0,9.84,5.07,15.2,15.28,15.2,8.81,0,16.12-3.92,20.27-12v-27.36h6.81Z"/><path class="d" d="M138.3,443.2v-43.6h6.81v10.72c3.65-7.36,12.71-11.6,22.51-11.6v5.92c-10.3,0-19.11,4.4-22.51,13.12v25.44h-6.81Z"/><path class="d" d="M177.34,443.2v-43.6h6.81v9.04c4.24-6.56,11.88-10.64,21.6-10.64,14.04,0,20.77,8.64,20.77,20.56v24.64h-6.81v-24.16c0-9.84-5.07-15.2-15.28-15.2-8.81,0-16.12,3.92-20.27,12v27.36h-6.81Z"/><path class="d" d="M268.21,388.64c0-2.4,2.08-4.24,4.82-4.24s4.82,1.84,4.82,4.24-2.08,4.24-4.82,4.24-4.82-1.92-4.82-4.24Zm8.22,54.56h-6.81v-43.6h6.81v43.6Z"/><path class="d" d="M323.7,440.72c-3.57,2.4-8.06,4.08-13.12,4.08-8.14,0-14.87-4.16-14.87-12.64v-26.8h-9.14v-5.76h9.14v-10.16h6.81v10.16h20.85v5.76h-20.85v25.84c0,5.36,4.24,7.76,9.22,7.76,3.57,0,6.56-1.28,9.55-2.96l2.41,4.72Z"/><path class="d" d="M407.68,399.6v43.6h-6.81v-9.04c-4.24,6.56-11.88,10.64-21.6,10.64-14.04,0-20.77-8.64-20.77-20.56v-24.64h6.81v24.16c0,9.84,5.07,15.2,15.28,15.2,8.81,0,16.12-3.92,20.27-12v-27.36h6.81Z"/><path class="d" d="M430.93,434.8v24.4h-6.81v-59.6h6.81v8.4c4.15-6.08,11.88-10,21.85-10,15.12,0,24.59,9.28,24.59,23.36s-9.47,23.44-24.59,23.44c-9.97,0-17.69-3.92-21.85-10Zm0-20.32v13.84c4.65,7.76,11.71,10.64,20.1,10.64,12.46,0,19.44-6.32,19.44-17.6s-6.98-17.52-19.44-17.52c-8.39,0-15.45,2.88-20.1,10.64Z"/><path class="d" d="M515.82,388.64c0-2.4,2.08-4.24,4.82-4.24s4.82,1.84,4.82,4.24-2.08,4.24-4.82,4.24-4.82-1.92-4.82-4.24Zm8.22,54.56h-6.81v-43.6h6.81v43.6Z"/><path class="d" d="M540.74,443.2v-43.6h6.81v9.04c4.24-6.56,11.88-10.64,21.6-10.64,14.04,0,20.77,8.64,20.77,20.56v24.64h-6.81v-24.16c0-9.84-5.07-15.2-15.28-15.2-8.81,0-16.12,3.92-20.27,12v27.36h-6.81Z"/><path class="d" d="M52.08,526.72c0,7.84-8.22,14.16-23.67,14.16-10.38,0-19.44-3.44-26.41-9.36l4.32-3.92c5.9,4.8,12.79,7.84,22.26,7.84s16.78-2.8,16.78-8.08-6.73-6.88-18.27-7.84c-11.96-.96-23.34-3.44-23.34-12.4s9.97-13.2,23.34-13.2c9.14,0,17.69,3.52,22.68,7.44l-4.32,4.4c-4.24-3.52-10.3-6.32-18.69-6.4-6.89-.08-16.28,1.52-16.28,7.36,0,5.44,8.14,6.48,18.03,7.2,13.62,1.04,23.59,4.32,23.59,12.8Z"/><path class="d" d="M60.55,517.44c0-14.4,10.22-23.52,27.49-23.52s27.5,9.12,27.5,23.52-10.22,23.44-27.5,23.44-27.49-9.04-27.49-23.44Zm48.1,0c0-11.84-8.8-17.68-20.6-17.68s-20.6,5.84-20.6,17.68,8.8,17.6,20.6,17.6,20.6-5.84,20.6-17.6Z"/><path class="d" d="M214.72,514.4v24.8h-6.73v-24.32c0-9.2-4.4-15.04-14.54-15.04-8.64,0-14.87,4.4-18.52,12.08,.08,.8,.08,1.68,.08,2.48v19.44l.08,5.36h-6.81v-24.32c0-9.2-4.4-15.04-14.54-15.04-8.56,0-14.7,4.24-18.36,11.84v27.52h-6.81v-43.6h6.81v9.04c3.65-6.4,11.05-10.64,20.1-10.64,10.47,0,16.28,5.12,18.44,12.56,3.49-7.68,11.63-12.56,21.26-12.56,13.87,0,19.52,9.04,19.52,20.4Z"/><path class="d" d="M255.5,535.28c8.97,0,14.37-2.16,19.6-6.88l4.49,4.56c-6.15,5.36-13.71,7.92-24.42,7.92-17.53,0-27.58-9.12-27.58-23.44s10.05-23.52,27.16-23.52c16.12,0,26.41,8.4,26.41,23.44,0,.72-.08,1.12-.17,1.44h-46.52c.66,11.04,8.97,16.48,21.02,16.48Zm-20.68-21.92h39.46c-1.99-9.68-9.72-13.84-19.44-13.84-10.47,0-18.27,4.64-20.02,13.84Z"/><path class="d" d="M363.07,495.6l-16.95,43.6h-6.98l-14.37-36.48-14.54,36.48h-6.98l-16.95-43.6h7.06l13.79,36.16,14.29-36.16h6.65l14.29,36.16,13.79-36.16h6.89Z"/><path class="d" d="M423.13,514.56v24.64h-6.81v-24.16c0-9.84-5.07-15.2-15.28-15.2-8.81,0-16.12,3.92-20.27,12v27.36h-6.81v-59.2h6.81v24.64c4.24-6.56,11.88-10.64,21.6-10.64,14.04,0,20.77,8.64,20.77,20.56Z"/><path class="d" d="M463.91,535.28c8.97,0,14.37-2.16,19.6-6.88l4.49,4.56c-6.15,5.36-13.71,7.92-24.42,7.92-17.53,0-27.58-9.12-27.58-23.44s10.05-23.52,27.16-23.52c16.12,0,26.41,8.4,26.41,23.44,0,.72-.08,1.12-.17,1.44h-46.52c.66,11.04,8.97,16.48,21.02,16.48Zm-20.68-21.92h39.46c-1.99-9.68-9.72-13.84-19.44-13.84-10.47,0-18.27,4.64-20.02,13.84Z"/><path class="d" d="M502.12,539.2v-43.6h6.81v10.72c3.65-7.36,12.71-11.6,22.51-11.6v5.92c-10.3,0-19.11,4.4-22.51,13.12v25.44h-6.81Z"/><path class="d" d="M562.67,535.28c8.97,0,14.37-2.16,19.6-6.88l4.49,4.56c-6.15,5.36-13.71,7.92-24.42,7.92-17.53,0-27.58-9.12-27.58-23.44s10.05-23.52,27.16-23.52c16.12,0,26.41,8.4,26.41,23.44,0,.72-.08,1.12-.17,1.44h-46.52c.66,11.04,8.97,16.48,21.02,16.48Zm-20.68-21.92h39.46c-1.99-9.68-9.72-13.84-19.44-13.84-10.47,0-18.27,4.64-20.02,13.84Z"/><path class="d" d="M30.57,636.88c-17.19,0-27.41-9.2-27.41-23.44s10.22-23.52,27.41-23.52c12.38,0,19.35,4.64,23.59,10.48l-6.65,3.2c-3.32-5.68-10.38-7.84-16.86-7.84-11.96,0-20.6,5.84-20.6,17.68s8.64,17.6,20.6,17.6c6.56,0,13.79-2.24,17.03-8.08l6.73,2.88c-4.15,6.4-11.21,11.04-23.84,11.04Z"/><path class="d" d="M62.13,613.44c0-14.4,10.22-23.52,27.49-23.52s27.5,9.12,27.5,23.52-10.22,23.44-27.5,23.44-27.49-9.04-27.49-23.44Zm48.1,0c0-11.84-8.8-17.68-20.6-17.68s-20.6,5.84-20.6,17.68,8.8,17.6,20.6,17.6,20.6-5.84,20.6-17.6Z"/><path class="d" d="M126.76,613.44c0-14.4,10.22-23.52,27.49-23.52s27.5,9.12,27.5,23.52-10.22,23.44-27.5,23.44-27.49-9.04-27.49-23.44Zm48.1,0c0-11.84-8.8-17.68-20.6-17.68s-20.6,5.84-20.6,17.68,8.8,17.6,20.6,17.6,20.6-5.84,20.6-17.6Z"/><path class="d" d="M195.03,635.2v-59.2h6.81v59.2h-6.81Z"/><path class="d" d="M215.97,631.6c0-2.56,2.08-4.48,4.98-4.48s4.98,1.92,4.98,4.48-2.08,4.4-4.98,4.4-4.98-1.84-4.98-4.4Z"/><path class="d" d="M69.78,675.2v56h-6.15l-48.84-47.44v47.44H7.97v-56h7.56l47.43,46.16v-46.16h6.81Z"/><path class="d" d="M84.23,709.44c0-14.4,10.22-23.52,27.49-23.52s27.5,9.12,27.5,23.52-10.22,23.44-27.5,23.44-27.49-9.04-27.49-23.44Zm48.1,0c0-11.84-8.8-17.68-20.6-17.68s-20.6,5.84-20.6,17.68,8.8,17.6,20.6,17.6,20.6-5.84,20.6-17.6Z"/><path class="d" d="M221.95,687.6l-16.95,43.6h-6.98l-14.37-36.48-14.54,36.48h-6.98l-16.95-43.6h7.06l13.79,36.16,14.29-36.16h6.65l14.29,36.16,13.79-36.16h6.89Z"/><path class="d" d="M236.98,728.24c0,4.24-2.49,10.24-6.81,14.16l-2.24-1.84c3.32-3.68,4.57-6,4.98-8.88-.25,.24-.83,.32-1.33,.32-2.57,0-4.65-1.84-4.65-4.48,0-2.48,2.08-4.4,4.9-4.4,2.99,0,5.15,2,5.15,5.12Z"/><path class="d" d="M363.91,675.2l-21.35,56h-7.39l-18.69-47.92-18.77,47.92h-7.39l-21.35-56h7.64l17.53,47.84,18.86-47.84h7.06l18.77,47.84,17.61-47.84h7.48Z"/><path class="d" d="M423.79,706.56v24.64h-6.81v-24.16c0-9.84-5.07-15.2-15.28-15.2-8.81,0-16.12,3.92-20.27,12v27.36h-6.81v-59.2h6.81v24.64c4.24-6.56,11.88-10.64,21.6-10.64,14.04,0,20.77,8.64,20.77,20.56Z"/><path class="d" d="M486.18,707.04v15.68c0,3.28,.58,5.92,2.16,8.48h-7.23c-1.33-2.16-1.91-4.48-1.91-6.96v-.16c-3.57,4.72-10.71,8.72-20.52,8.72s-23.09-3.84-23.09-15.44,13.21-15.44,23.09-15.44,16.95,3.92,20.52,8.72v-3.6c0-10.56-6.23-15.36-18.69-15.36-7.23,0-12.71,1.92-17.78,5.04l-3.16-4.8c5.32-3.44,13.87-5.92,22.1-5.92,15.2,0,24.5,7.2,24.5,21.04Zm-6.81,9.52c-3.9-6.8-12.46-9.2-20.1-9.2-6.65,0-16.95,1.84-16.95,10s10.3,10,16.95,10c7.64,0,16.2-2.48,20.1-9.2v-1.6Z"/><path class="d" d="M531.78,728.72c-3.57,2.4-8.06,4.08-13.12,4.08-8.14,0-14.87-4.16-14.87-12.64v-26.8h-9.14v-5.76h9.14v-10.16h6.81v10.16h20.85v5.76h-20.85v25.84c0,5.36,4.24,7.76,9.22,7.76,3.57,0,6.56-1.28,9.55-2.96l2.41,4.72Z"/><path class="d" d="M30.57,828.88c-17.19,0-27.41-9.2-27.41-23.44s10.22-23.52,27.41-23.52c12.38,0,19.35,4.64,23.59,10.48l-6.65,3.2c-3.32-5.68-10.38-7.84-16.86-7.84-11.96,0-20.6,5.84-20.6,17.68s8.64,17.6,20.6,17.6c6.56,0,13.79-2.24,17.03-8.08l6.73,2.88c-4.15,6.4-11.21,11.04-23.84,11.04Z"/><path class="d" d="M115.21,802.56v24.64h-6.81v-24.16c0-9.84-5.07-15.2-15.28-15.2-8.81,0-16.12,3.92-20.27,12v27.36h-6.81v-59.2h6.81v24.64c4.24-6.56,11.88-10.64,21.6-10.64,14.04,0,20.77,8.64,20.77,20.56Z"/><path class="d" d="M177.59,803.04v15.68c0,3.28,.58,5.92,2.16,8.48h-7.23c-1.33-2.16-1.91-4.48-1.91-6.96v-.16c-3.57,4.72-10.72,8.72-20.52,8.72s-23.09-3.84-23.09-15.44,13.21-15.44,23.09-15.44,16.95,3.92,20.52,8.72v-3.6c0-10.56-6.23-15.36-18.69-15.36-7.23,0-12.71,1.92-17.78,5.04l-3.16-4.8c5.32-3.44,13.87-5.92,22.1-5.92,15.2,0,24.5,7.2,24.5,21.04Zm-6.81,9.52c-3.9-6.8-12.46-9.2-20.1-9.2-6.65,0-16.95,1.84-16.95,10s10.3,10,16.95,10c7.64,0,16.2-2.48,20.1-9.2v-1.6Z"/><path class="d" d="M306.17,802.4v24.8h-6.73v-24.32c0-9.2-4.4-15.04-14.54-15.04-8.64,0-14.87,4.4-18.52,12.08,.08,.8,.08,1.68,.08,2.48v19.44l.08,5.36h-6.81v-24.32c0-9.2-4.4-15.04-14.54-15.04-8.56,0-14.7,4.24-18.36,11.84v27.52h-6.81v-43.6h6.81v9.04c3.65-6.4,11.05-10.64,20.1-10.64,10.47,0,16.28,5.12,18.44,12.56,3.49-7.68,11.63-12.56,21.26-12.56,13.87,0,19.52,9.04,19.52,20.4Z"/><path class="d" d="M368.55,803.04v15.68c0,3.28,.58,5.92,2.16,8.48h-7.23c-1.33-2.16-1.91-4.48-1.91-6.96v-.16c-3.57,4.72-10.72,8.72-20.52,8.72s-23.09-3.84-23.09-15.44,13.21-15.44,23.09-15.44,16.95,3.92,20.52,8.72v-3.6c0-10.56-6.23-15.36-18.69-15.36-7.23,0-12.71,1.92-17.78,5.04l-3.16-4.8c5.32-3.44,13.87-5.92,22.1-5.92,15.2,0,24.51,7.2,24.51,21.04Zm-6.81,9.52c-3.9-6.8-12.46-9.2-20.1-9.2-6.65,0-16.95,1.84-16.95,10s10.3,10,16.95,10c7.64,0,16.2-2.48,20.1-9.2v-1.6Z"/><path class="d" d="M435,828.88c-17.19,0-27.41-9.2-27.41-23.44s10.22-23.52,27.41-23.52c12.38,0,19.35,4.64,23.59,10.48l-6.64,3.2c-3.32-5.68-10.38-7.84-16.86-7.84-11.96,0-20.6,5.84-20.6,17.68s8.64,17.6,20.6,17.6c6.56,0,13.79-2.24,17.03-8.08l6.73,2.88c-4.15,6.4-11.21,11.04-23.84,11.04Z"/><path class="d" d="M516.57,803.04v15.68c0,3.28,.58,5.92,2.16,8.48h-7.23c-1.33-2.16-1.91-4.48-1.91-6.96v-.16c-3.57,4.72-10.71,8.72-20.52,8.72s-23.09-3.84-23.09-15.44,13.21-15.44,23.09-15.44,16.95,3.92,20.52,8.72v-3.6c0-10.56-6.23-15.36-18.69-15.36-7.23,0-12.71,1.92-17.78,5.04l-3.16-4.8c5.32-3.44,13.87-5.92,22.1-5.92,15.2,0,24.5,7.2,24.5,21.04Zm-6.81,9.52c-3.9-6.8-12.46-9.2-20.1-9.2-6.65,0-16.95,1.84-16.95,10s10.3,10,16.95,10c7.64,0,16.2-2.48,20.1-9.2v-1.6Z"/><path class="d" d="M532.68,827.2v-59.2h6.81v59.2h-6.81Z"/><path class="d" d="M556.44,827.2v-59.2h6.81v59.2h-6.81Z"/><path class="d" d="M5.4,868.64c0-2.4,2.08-4.24,4.82-4.24s4.82,1.84,4.82,4.24-2.08,4.24-4.82,4.24-4.82-1.92-4.82-4.24Zm8.22,54.56H6.81v-43.6h6.81v43.6Z"/><path class="d" d="M60.89,920.72c-3.57,2.4-8.06,4.08-13.12,4.08-8.14,0-14.87-4.16-14.87-12.64v-26.8h-9.14v-5.76h9.14v-10.16h6.81v10.16h20.85v5.76h-20.85v25.84c0,5.36,4.24,7.76,9.22,7.76,3.57,0,6.56-1.28,9.55-2.96l2.41,4.72Z"/><path class="d" d="M89.29,892.32c13.29-.8,23.09-3.44,23.09-10.72s-9.05-10.08-18.36-10.08-17.69,3.04-23.26,10.8l-5.4-3.28c5.73-8.08,15.78-13.44,28.91-13.44s25.25,5.44,25.25,16c0,9.52-10.3,14.64-24.09,15.6v9.92h-6.15v-14.8Zm-1.74,27.28c0-2.56,2.08-4.48,4.98-4.48s4.98,1.92,4.98,4.48-2.08,4.4-4.98,4.4-4.98-1.84-4.98-4.4Z"/></g></g></svg>