<?xml version="1.0" encoding="UTF-8"?><svg id="b" xmlns="http://www.w3.org/2000/svg" viewBox="0 0 529.55 874.8"><defs><style>.d{fill:#ffff36;}</style></defs><g id="c"><g><path class="d" d="M1.71,58.95c-.54-.27-.72-.72-.45-1.26l2.25-4.59c.18-.45,.54-.63,1.17-.27,3.78,2.43,9.36,5.85,17.55,5.85,4.32,0,7.74-1.08,10.08-2.79,2.7-2.07,4.05-5.13,4.05-8.64,0-4.68-3.33-7.47-7.83-9.36-5.31-2.34-11.34-3.15-17.73-6.3C5.49,28.98,1.62,25.11,1.62,18.27c0-4.86,1.8-8.91,5.31-11.79C10.62,3.51,16.11,1.8,23.4,1.8s13.68,1.98,17.82,4.32c.54,.36,.63,.72,.36,1.26l-2.16,4.5c-.27,.54-.72,.72-1.26,.36-4.5-2.61-9.99-4.23-15.12-4.23s-8.73,1.17-10.98,3.24c-1.89,1.71-2.88,3.96-2.88,6.75,0,4.5,3.51,7.02,8.91,9,6.12,2.25,12.42,3.06,18.09,6.39,4.23,2.43,8.01,6.57,8.01,13.23,0,5.94-2.43,10.53-6.48,13.68-3.78,2.97-9.18,4.5-15.39,4.5-9.54,0-16.29-3.06-20.61-5.85Z"/><path class="d" d="M56.16,31.5c-.63,.36-1.08,.18-1.26-.27l-1.53-3.33c-.27-.54-.18-.81,.45-1.17,4.14-2.79,9.9-4.23,15.48-4.23,3.87,0,8.64,.72,11.88,4.41,2.07,2.34,3.33,5.76,3.33,10.98v25.2c0,.45-.36,.81-.81,.81h-4.23c-.45,0-.81-.36-.81-.81v-1.44h-.36c-4.14,2.43-7.74,3.15-12.24,3.15-3.69,0-7.29-.9-10.08-2.88-2.7-1.98-4.59-4.95-4.59-9.09,0-5.58,3.42-8.73,8.37-10.62,5.49-2.07,12.78-2.61,18.18-2.88v-1.35c0-3.6-.63-5.76-2.07-7.47-1.8-2.07-4.68-2.7-7.38-2.7-5.13,0-8.91,1.71-12.33,3.69Zm21.78,25.47v-12.69c-4.23,.18-9.27,.45-13.41,1.62-3.87,.99-6.84,2.97-6.84,6.57,0,5.04,5.22,7.11,10.26,7.11,3.42,0,6.84-.99,9.99-2.61Z"/><path class="d" d="M103.5,28.08c2.7-3.6,6.75-5.58,11.88-5.58,3.42,0,6.66,.81,9.18,2.7,1.98,1.44,3.42,3.33,4.32,5.76,.99-2.16,2.61-4.5,5.4-6.3,2.43-1.53,5.4-2.16,8.37-2.16,4.23,0,8.19,1.08,11.07,3.96,2.61,2.52,4.32,6.48,4.32,12.42v24.21c0,.45-.36,.81-.81,.81h-4.95c-.45,0-.9-.36-.9-.81v-22.59c0-4.14-.9-7.47-2.7-9.45-1.71-1.89-4.23-2.79-7.38-2.79-3.33,0-6.3,1.26-8.19,4.32-1.71,2.88-2.34,6.57-2.34,11.16v19.35c0,.45-.36,.81-.81,.81h-4.95c-.45,0-.9-.36-.9-.81v-22.59c0-4.14-.9-7.47-2.7-9.45-1.71-1.89-4.23-2.79-7.38-2.79-3.33,0-6.3,1.26-8.19,4.32-1.44,2.43-2.34,6.03-2.34,10.26v20.25c0,.45-.36,.81-.81,.81h-4.95c-.45,0-.9-.36-.9-.81V24.12c0-.45,.45-.9,.9-.9h4.59c.45,0,.9,.45,.9,.9v3.96h.27Z"/><path class="d" d="M183.42,22.5c7.02,0,13.14,1.89,17.46,5.85,3.78,3.51,6.21,8.64,6.21,15.21s-1.98,11.52-5.13,14.85c-4.14,4.59-10.26,6.39-15.48,6.39-3.87,0-6.57-.45-9.54-1.8v20.88c0,.45-.36,.81-.81,.81h-4.86c-.45,0-.9-.36-.9-.81V24.75c0-.54,.27-.99,.99-1.17,3.24-.63,7.74-1.08,12.06-1.08Zm-6.48,35.01c2.7,1.35,5.13,1.89,8.91,1.89,3.42,0,7.56-1.08,10.62-4.14,2.52-2.43,4.05-6.39,4.05-11.7,0-4.86-1.53-8.64-4.32-11.34-2.97-2.88-7.2-4.41-12.15-4.41-2.34,0-4.95,.27-7.11,.54v29.16Z"/><path class="d" d="M218.43,2.61h4.86c.45,0,.81,.45,.81,.9V63.09c0,.45-.36,.81-.81,.81h-4.86c-.45,0-.9-.36-.9-.81V3.51c0-.45,.45-.9,.9-.9Z"/><path class="d" d="M268.73,55.8c.72-.45,1.17-.18,1.35,.18l1.71,3.33c.27,.45,.09,.81-.36,1.17-3.33,2.25-9.18,4.32-15.48,4.32-6.75,0-12.33-2.34-16.02-6.57-3.42-3.78-5.31-9-5.31-15.12,0-5.76,1.98-10.98,5.4-14.67s8.37-5.94,14.85-5.94,11.61,2.61,14.76,6.48c2.97,3.78,4.59,9.09,4.23,15.48,0,.63-.45,.99-1.08,.99h-31.32c.27,3.42,1.44,6.57,3.51,9,2.61,3.15,6.57,4.95,11.52,4.95s8.91-1.62,12.24-3.6Zm-1.17-15.12c-.18-3.69-1.35-6.75-3.33-9-2.07-2.25-5.31-3.87-9.36-3.87-4.5,0-7.92,1.62-10.17,4.23-1.89,2.25-3.06,5.4-3.24,8.64h26.1Z"/><path class="d" d="M314.72,49.59c0,2.79,.36,5.04,1.35,6.57,1.17,1.98,3.15,2.97,6.39,2.97,2.43,0,4.77-.63,7.38-2.52,.63-.45,1.08-.36,1.35,.09l1.62,3.51c.27,.45,.09,.81-.36,1.17-3.15,2.25-7.29,3.42-11.61,3.42-4.86,0-8.01-1.53-9.99-3.96-2.07-2.61-2.79-6.39-2.79-10.44V28.44h-4.77c-.45,0-.9-.36-.9-.81v-3.51c0-.45,.45-.9,.9-.9h4.77v-7.83c0-.45,.45-.9,.9-.9h4.86c.45,0,.9,.45,.9,.9v7.83h14.13c.45,0,.9,.45,.9,.9v3.51c0,.45-.45,.81-.9,.81h-14.13v21.15Z"/><path class="d" d="M369.35,55.8c.72-.45,1.17-.18,1.35,.18l1.71,3.33c.27,.45,.09,.81-.36,1.17-3.33,2.25-9.18,4.32-15.48,4.32-6.75,0-12.33-2.34-16.02-6.57-3.42-3.78-5.31-9-5.31-15.12,0-5.76,1.98-10.98,5.4-14.67s8.37-5.94,14.85-5.94,11.61,2.61,14.76,6.48c2.97,3.78,4.59,9.09,4.23,15.48,0,.63-.45,.99-1.08,.99h-31.32c.27,3.42,1.44,6.57,3.51,9,2.61,3.15,6.57,4.95,11.52,4.95s8.91-1.62,12.24-3.6Zm-1.17-15.12c-.18-3.69-1.35-6.75-3.33-9-2.07-2.25-5.31-3.87-9.36-3.87-4.5,0-7.92,1.62-10.17,4.23-1.89,2.25-3.06,5.4-3.24,8.64h26.1Z"/><path class="d" d="M395.72,43.2l-15.93-18.54c-.54-.72-.36-1.44,.54-1.44h6.12c.72,0,1.08,.36,1.44,.9l11.88,14.49,11.97-14.49c.36-.54,.63-.9,1.44-.9h5.85c.9,0,1.17,.72,.54,1.44l-15.93,18.09,16.92,19.8c.54,.72,.36,1.35-.63,1.35h-5.94c-.72,0-1.08-.36-1.44-.72l-12.78-15.48-12.87,15.48c-.36,.45-.72,.72-1.44,.72h-5.85c-.9,0-1.17-.72-.63-1.35l16.74-19.35Z"/><path class="d" d="M436.31,49.59c0,2.79,.36,5.04,1.35,6.57,1.17,1.98,3.15,2.97,6.39,2.97,2.43,0,4.77-.63,7.38-2.52,.63-.45,1.08-.36,1.35,.09l1.62,3.51c.27,.45,.09,.81-.36,1.17-3.15,2.25-7.29,3.42-11.61,3.42-4.86,0-8.01-1.53-9.99-3.96-2.07-2.61-2.79-6.39-2.79-10.44V28.44h-4.77c-.45,0-.9-.36-.9-.81v-3.51c0-.45,.45-.9,.9-.9h4.77v-7.83c0-.45,.45-.9,.9-.9h4.86c.45,0,.9,.45,.9,.9v7.83h14.13c.45,0,.9,.45,.9,.9v3.51c0,.45-.45,.81-.9,.81h-14.13v21.15Z"/><path class="d" d="M482.57,3.87c0-2.16,1.8-3.87,3.96-3.87s3.96,1.71,3.96,3.87-1.8,3.96-3.96,3.96-3.96-1.71-3.96-3.96Zm1.62,19.35h4.86c.45,0,.81,.45,.81,.9V63.09c0,.45-.36,.81-.81,.81h-4.86c-.45,0-.9-.36-.9-.81V24.12c0-.45,.45-.9,.9-.9Z"/><path class="d" d="M522.71,53.37c0-3.42-2.52-4.95-5.76-6.39-2.61-1.17-6.57-2.25-9.81-3.78-3.87-1.8-6.66-4.86-6.66-9.81,0-6.84,5.31-10.98,14.85-10.98,5.58,0,9.9,1.44,12.6,2.97,.63,.36,.63,.72,.45,1.17l-1.8,3.69c-.27,.54-.63,.63-1.17,.27-3.06-1.71-6.48-2.61-9.81-2.61-5.58,0-8.28,1.89-8.28,5.49,0,2.97,2.25,4.32,4.95,5.49,3.06,1.35,7.11,2.43,9.81,3.78,4.59,2.16,7.47,5.31,7.47,10.17,0,7.38-5.85,11.97-15.03,11.97-6.66,0-11.34-1.8-14.04-3.42-.54-.27-.63-.63-.36-1.08l1.8-3.69c.27-.54,.63-.72,1.17-.36,3.06,1.89,6.75,3.24,11.16,3.24,5.31,0,8.46-1.8,8.46-6.12Z"/><path class="d" d="M10.71,120.15c2.79-5.31,8.19-7.65,14.22-7.65,4.86,0,8.91,1.17,11.79,3.69,3.15,2.79,4.86,7.29,4.86,13.59v23.31c0,.45-.45,.81-.9,.81h-4.77c-.45,0-.9-.36-.9-.81v-21.87c0-4.5-.9-8.1-3.33-10.35-1.8-1.71-4.32-2.61-8.01-2.61-4.68,0-8.37,2.07-10.62,6.21-1.71,3.24-2.34,7.11-2.34,10.71v17.91c0,.45-.36,.81-.81,.81H4.95c-.45,0-.9-.36-.9-.81v-59.58c0-.45,.45-.9,.9-.9h4.95c.45,0,.81,.45,.81,.9v26.64Z"/><path class="d" d="M85.59,145.8c.72-.45,1.17-.18,1.35,.18l1.71,3.33c.27,.45,.09,.81-.36,1.17-3.33,2.25-9.18,4.32-15.48,4.32-6.75,0-12.33-2.34-16.02-6.57-3.42-3.78-5.31-9-5.31-15.12,0-5.76,1.98-10.98,5.4-14.67s8.37-5.94,14.85-5.94,11.61,2.61,14.76,6.48c2.97,3.78,4.59,9.09,4.23,15.48,0,.63-.45,.99-1.08,.99h-31.32c.27,3.42,1.44,6.57,3.51,9,2.61,3.15,6.57,4.95,11.52,4.95s8.91-1.62,12.24-3.6Zm-1.17-15.12c-.18-3.69-1.35-6.75-3.33-9-2.07-2.25-5.31-3.87-9.36-3.87-4.5,0-7.92,1.62-10.17,4.23-1.89,2.25-3.06,5.4-3.24,8.64h26.1Z"/><path class="d" d="M110.79,122.13c-2.25,3.06-3.06,7.92-3.06,11.88v19.08c0,.45-.36,.81-.81,.81h-4.95c-.45,0-.9-.36-.9-.81v-38.97c0-.45,.45-.9,.9-.9h4.59c.45,0,.9,.45,.9,.9v4.95h.27c2.07-4.32,6.03-6.57,11.43-6.57,3.96,0,7.11,1.17,9.72,3.24,.45,.36,.54,.72,.27,1.17l-1.98,4.05c-.27,.45-.81,.54-1.35,.18-2.16-1.53-4.59-2.61-7.74-2.61-2.97,0-5.49,1.17-7.29,3.6Z"/><path class="d" d="M165.87,145.8c.72-.45,1.17-.18,1.35,.18l1.71,3.33c.27,.45,.09,.81-.36,1.17-3.33,2.25-9.18,4.32-15.48,4.32-6.75,0-12.33-2.34-16.02-6.57-3.42-3.78-5.31-9-5.31-15.12,0-5.76,1.98-10.98,5.4-14.67s8.37-5.94,14.85-5.94,11.61,2.61,14.76,6.48c2.97,3.78,4.59,9.09,4.23,15.48,0,.63-.45,.99-1.08,.99h-31.32c.27,3.42,1.44,6.57,3.51,9,2.61,3.15,6.57,4.95,11.52,4.95s8.91-1.62,12.24-3.6Zm-1.17-15.12c-.18-3.69-1.35-6.75-3.33-9-2.07-2.25-5.31-3.87-9.36-3.87-4.5,0-7.92,1.62-10.17,4.23-1.89,2.25-3.06,5.4-3.24,8.64h26.1Z"/><path class="d" d="M181.53,162.45c-.63,.18-.99,.18-1.35-.27l-.72-1.08c-.27-.54-.09-.9,.36-1.26,1.17-.9,2.7-2.07,2.7-3.69,0-2.34-3.24-2.07-3.24-5.67,0-2.34,1.62-3.96,4.23-3.96,3.42,0,4.95,2.52,5.04,6.03,.09,4.14-3.15,8.37-7.02,9.9Z"/><path class="d" d="M221.85,152.73v-59.22c0-.45,.45-.9,.9-.9h4.86c.45,0,.81,.45,.81,.9v21.51c3.42-1.62,6.93-2.52,11.25-2.52,5.4,0,10.53,1.89,14.13,5.76,3.15,3.51,5.22,8.64,5.22,15.39,0,5.76-1.71,10.35-4.77,13.86-4.32,4.95-11.25,7.29-19.17,7.29-4.23,0-9.81-.27-12.33-.99-.54-.09-.9-.54-.9-1.08Zm6.57-3.87c1.98,.36,5.04,.54,7.2,.54,5.04,0,10.17-1.53,13.41-5.49,1.98-2.43,3.24-5.76,3.24-10.26,0-5.31-1.62-9.09-4.05-11.61-2.61-2.7-6.21-3.96-9.81-3.96-4.05,0-7.2,.99-9.99,2.52v28.26Z"/><path class="d" d="M279.18,122.13c-2.25,3.06-3.06,7.92-3.06,11.88v19.08c0,.45-.36,.81-.81,.81h-4.95c-.45,0-.9-.36-.9-.81v-38.97c0-.45,.45-.9,.9-.9h4.59c.45,0,.9,.45,.9,.9v4.95h.27c2.07-4.32,6.03-6.57,11.43-6.57,3.96,0,7.11,1.17,9.72,3.24,.45,.36,.54,.72,.27,1.17l-1.98,4.05c-.27,.45-.81,.54-1.35,.18-2.16-1.53-4.59-2.61-7.74-2.61-2.97,0-5.49,1.17-7.29,3.6Z"/><path class="d" d="M306.18,118.62c3.87-3.87,9.36-6.12,15.48-6.12s11.61,2.25,15.48,6.12c3.78,3.69,6.03,8.91,6.03,15.03s-2.25,11.34-6.03,15.03c-3.87,3.87-9.36,6.12-15.48,6.12s-11.61-2.25-15.48-6.12c-3.78-3.69-6.03-8.91-6.03-15.03s2.25-11.34,6.03-15.03Zm4.5,26.01c2.61,2.97,6.48,4.77,10.98,4.77s8.37-1.8,10.98-4.77c2.61-2.79,4.05-6.66,4.05-10.98s-1.44-8.19-4.05-10.98c-2.61-2.97-6.48-4.77-10.98-4.77s-8.37,1.8-10.98,4.77c-2.61,2.79-4.05,6.66-4.05,10.98s1.44,8.19,4.05,10.98Z"/><path class="d" d="M361.25,139.59c0,2.79,.36,5.04,1.35,6.57,1.17,1.98,3.15,2.97,6.39,2.97,2.43,0,4.77-.63,7.38-2.52,.63-.45,1.08-.36,1.35,.09l1.62,3.51c.27,.45,.09,.81-.36,1.17-3.15,2.25-7.29,3.42-11.61,3.42-4.86,0-8.01-1.53-9.99-3.96-2.07-2.61-2.79-6.39-2.79-10.44v-21.96h-4.77c-.45,0-.9-.36-.9-.81v-3.51c0-.45,.45-.9,.9-.9h4.77v-7.83c0-.45,.45-.9,.9-.9h4.86c.45,0,.9,.45,.9,.9v7.83h14.13c.45,0,.9,.45,.9,.9v3.51c0,.45-.45,.81-.9,.81h-14.13v21.15Z"/><path class="d" d="M392.03,120.15c2.79-5.31,8.19-7.65,14.22-7.65,4.86,0,8.91,1.17,11.79,3.69,3.15,2.79,4.86,7.29,4.86,13.59v23.31c0,.45-.45,.81-.9,.81h-4.77c-.45,0-.9-.36-.9-.81v-21.87c0-4.5-.9-8.1-3.33-10.35-1.8-1.71-4.32-2.61-8.01-2.61-4.68,0-8.37,2.07-10.62,6.21-1.71,3.24-2.34,7.11-2.34,10.71v17.91c0,.45-.36,.81-.81,.81h-4.95c-.45,0-.9-.36-.9-.81v-59.58c0-.45,.45-.9,.9-.9h4.95c.45,0,.81,.45,.81,.9v26.64Z"/><path class="d" d="M466.91,145.8c.72-.45,1.17-.18,1.35,.18l1.71,3.33c.27,.45,.09,.81-.36,1.17-3.33,2.25-9.18,4.32-15.48,4.32-6.75,0-12.33-2.34-16.02-6.57-3.42-3.78-5.31-9-5.31-15.12,0-5.76,1.98-10.98,5.4-14.67s8.37-5.94,14.85-5.94,11.61,2.61,14.76,6.48c2.97,3.78,4.59,9.09,4.23,15.48,0,.63-.45,.99-1.08,.99h-31.32c.27,3.42,1.44,6.57,3.51,9,2.61,3.15,6.57,4.95,11.52,4.95s8.91-1.62,12.24-3.6Zm-1.17-15.12c-.18-3.69-1.35-6.75-3.33-9-2.07-2.25-5.31-3.87-9.36-3.87-4.5,0-7.92,1.62-10.17,4.23-1.89,2.25-3.06,5.4-3.24,8.64h26.1Z"/><path class="d" d="M492.11,122.13c-2.25,3.06-3.06,7.92-3.06,11.88v19.08c0,.45-.36,.81-.81,.81h-4.95c-.45,0-.9-.36-.9-.81v-38.97c0-.45,.45-.9,.9-.9h4.59c.45,0,.9,.45,.9,.9v4.95h.27c2.07-4.32,6.03-6.57,11.43-6.57,3.96,0,7.11,1.17,9.72,3.24,.45,.36,.54,.72,.27,1.17l-1.98,4.05c-.27,.45-.81,.54-1.35,.18-2.16-1.53-4.59-2.61-7.74-2.61-2.97,0-5.49,1.17-7.29,3.6Z"/><path class="d" d="M513.71,154.8c-2.34,0-4.14-1.89-4.14-4.23s1.8-4.05,4.14-4.05,4.14,1.8,4.14,4.05-1.89,4.23-4.14,4.23Z"/><path class="d" d="M1.8,213.21c0-17.28,14.4-31.41,32.04-31.41,8.73,0,14.49,2.43,18.72,4.86,.63,.36,.81,.81,.54,1.35l-2.16,4.5c-.27,.63-.81,.54-1.26,.27-3.69-2.07-8.64-4.5-16.02-4.5-13.23,0-24.39,11.34-24.39,24.93,0,14.94,11.25,25.11,24.48,25.11,7.29,0,12.51-2.34,16.2-4.59,.54-.36,.9-.27,1.26,.27l2.16,4.68c.18,.45,.09,.81-.45,1.17-4.59,2.61-10.35,4.95-19.26,4.95-18.18,0-31.86-12.42-31.86-31.59Z"/><path class="d" d="M73.08,212.13c-2.25,3.06-3.06,7.92-3.06,11.88v19.08c0,.45-.36,.81-.81,.81h-4.95c-.45,0-.9-.36-.9-.81v-38.97c0-.45,.45-.9,.9-.9h4.59c.45,0,.9,.45,.9,.9v4.95h.27c2.07-4.32,6.03-6.57,11.43-6.57,3.96,0,7.11,1.17,9.72,3.24,.45,.36,.54,.72,.27,1.17l-1.98,4.05c-.27,.45-.81,.54-1.35,.18-2.16-1.53-4.59-2.61-7.74-2.61-2.97,0-5.49,1.17-7.29,3.6Z"/><path class="d" d="M97.92,211.5c-.63,.36-1.08,.18-1.26-.27l-1.53-3.33c-.27-.54-.18-.81,.45-1.17,4.14-2.79,9.9-4.23,15.48-4.23,3.87,0,8.64,.72,11.88,4.41,2.07,2.34,3.33,5.76,3.33,10.98v25.2c0,.45-.36,.81-.81,.81h-4.23c-.45,0-.81-.36-.81-.81v-1.44h-.36c-4.14,2.43-7.74,3.15-12.24,3.15-3.69,0-7.29-.9-10.08-2.88-2.7-1.98-4.59-4.95-4.59-9.09,0-5.58,3.42-8.73,8.37-10.62,5.49-2.07,12.78-2.61,18.18-2.88v-1.35c0-3.6-.63-5.76-2.07-7.47-1.8-2.07-4.68-2.7-7.38-2.7-5.13,0-8.91,1.71-12.33,3.69Zm21.78,25.47v-12.69c-4.23,.18-9.27,.45-13.41,1.62-3.87,.99-6.84,2.97-6.84,6.57,0,5.04,5.22,7.11,10.26,7.11,3.42,0,6.84-.99,9.99-2.61Z"/><path class="d" d="M158.4,233.37c0-3.42-2.52-4.95-5.76-6.39-2.61-1.17-6.57-2.25-9.81-3.78-3.87-1.8-6.66-4.86-6.66-9.81,0-6.84,5.31-10.98,14.85-10.98,5.58,0,9.9,1.44,12.6,2.97,.63,.36,.63,.72,.45,1.17l-1.8,3.69c-.27,.54-.63,.63-1.17,.27-3.06-1.71-6.48-2.61-9.81-2.61-5.58,0-8.28,1.89-8.28,5.49,0,2.97,2.25,4.32,4.95,5.49,3.06,1.35,7.11,2.43,9.81,3.78,4.59,2.16,7.47,5.31,7.47,10.17,0,7.38-5.85,11.97-15.03,11.97-6.66,0-11.34-1.8-14.04-3.42-.54-.27-.63-.63-.36-1.08l1.8-3.69c.27-.54,.63-.72,1.17-.36,3.06,1.89,6.75,3.24,11.16,3.24,5.31,0,8.46-1.8,8.46-6.12Z"/><path class="d" d="M182.16,210.15c2.79-5.31,8.19-7.65,14.22-7.65,4.86,0,8.91,1.17,11.79,3.69,3.15,2.79,4.86,7.29,4.86,13.59v23.31c0,.45-.45,.81-.9,.81h-4.77c-.45,0-.9-.36-.9-.81v-21.87c0-4.5-.9-8.1-3.33-10.35-1.8-1.71-4.32-2.61-8.01-2.61-4.68,0-8.37,2.07-10.62,6.21-1.71,3.24-2.34,7.11-2.34,10.71v17.91c0,.45-.36,.81-.81,.81h-4.95c-.45,0-.9-.36-.9-.81v-59.58c0-.45,.45-.9,.9-.9h4.95c.45,0,.81,.45,.81,.9v26.64Z"/><path class="d" d="M35.64,276.12v56.97c0,.45-.36,.81-.81,.81h-4.86c-.54,0-.9-.36-.9-.81v-52.56c0-.63-.18-.9-.63-1.26-2.16-1.44-5.04-1.98-7.38-1.98-6.3,0-8.37,4.23-8.37,10.53v5.4h11.43c.45,0,.81,.45,.81,.9v3.51c0,.45-.36,.81-.81,.81H12.69v34.65c0,.45-.36,.81-.9,.81H6.93c-.45,0-.81-.36-.81-.81v-34.65H.9c-.45,0-.9-.36-.9-.81v-3.51c0-.45,.45-.9,.9-.9H6.12v-6.48c0-8.28,3.33-14.94,15.03-14.94,5.49,0,10.8,1.44,13.68,3.06,.54,.27,.81,.63,.81,1.26Z"/><path class="d" d="M52.2,298.62c3.87-3.87,9.36-6.12,15.48-6.12s11.61,2.25,15.48,6.12c3.78,3.69,6.03,8.91,6.03,15.03s-2.25,11.34-6.03,15.03c-3.87,3.87-9.36,6.12-15.48,6.12s-11.61-2.25-15.48-6.12c-3.78-3.69-6.03-8.91-6.03-15.03s2.25-11.34,6.03-15.03Zm4.5,26.01c2.61,2.97,6.48,4.77,10.98,4.77s8.37-1.8,10.98-4.77c2.61-2.79,4.05-6.66,4.05-10.98s-1.44-8.19-4.05-10.98c-2.61-2.97-6.48-4.77-10.98-4.77s-8.37,1.8-10.98,4.77c-2.61,2.79-4.05,6.66-4.05,10.98s1.44,8.19,4.05,10.98Z"/><path class="d" d="M114.39,333.18c-.18,.81-.63,.99-1.35,.99h-5.13c-.72,0-1.08-.18-1.35-.99l-13.14-38.7c-.09-.54-.18-1.26,.72-1.26h4.86c.81,0,1.26,.36,1.35,.99l10.35,31.86h.18l10.26-31.86c.18-.63,.63-.99,1.35-.99h3.78c.72,0,1.17,.36,1.35,.99l10.26,31.86h.18l10.53-31.86c.09-.63,.54-.99,1.35-.99h4.5c.9,0,.9,.72,.63,1.26l-13.23,38.7c-.27,.81-.63,.99-1.35,.99h-5.22c-.72,0-1.17-.18-1.35-.99l-9.54-29.25h-.18l-9.81,29.25Z"/><path class="d" d="M193.58,325.8c.72-.45,1.17-.18,1.35,.18l1.71,3.33c.27,.45,.09,.81-.36,1.17-3.33,2.25-9.18,4.32-15.48,4.32-6.75,0-12.33-2.34-16.02-6.57-3.42-3.78-5.31-9-5.31-15.12,0-5.76,1.98-10.98,5.4-14.67s8.37-5.94,14.85-5.94,11.61,2.61,14.76,6.48c2.97,3.78,4.59,9.09,4.23,15.48,0,.63-.45,.99-1.08,.99h-31.32c.27,3.42,1.44,6.57,3.51,9,2.61,3.15,6.57,4.95,11.52,4.95s8.91-1.62,12.24-3.6Zm-1.17-15.12c-.18-3.69-1.35-6.75-3.33-9-2.07-2.25-5.31-3.87-9.36-3.87-4.5,0-7.92,1.62-10.17,4.23-1.89,2.25-3.06,5.4-3.24,8.64h26.1Z"/><path class="d" d="M218.79,302.13c-2.25,3.06-3.06,7.92-3.06,11.88v19.08c0,.45-.36,.81-.81,.81h-4.95c-.45,0-.9-.36-.9-.81v-38.97c0-.45,.45-.9,.9-.9h4.59c.45,0,.9,.45,.9,.9v4.95h.27c2.07-4.32,6.03-6.57,11.43-6.57,3.96,0,7.11,1.17,9.72,3.24,.45,.36,.54,.72,.27,1.17l-1.98,4.05c-.27,.45-.81,.54-1.35,.18-2.16-1.53-4.59-2.61-7.74-2.61-2.97,0-5.49,1.17-7.29,3.6Z"/><path class="d" d="M262.79,323.37c0-3.42-2.52-4.95-5.76-6.39-2.61-1.17-6.57-2.25-9.81-3.78-3.87-1.8-6.66-4.86-6.66-9.81,0-6.84,5.31-10.98,14.85-10.98,5.58,0,9.9,1.44,12.6,2.97,.63,.36,.63,.72,.45,1.17l-1.8,3.69c-.27,.54-.63,.63-1.17,.27-3.06-1.71-6.48-2.61-9.81-2.61-5.58,0-8.28,1.89-8.28,5.49,0,2.97,2.25,4.32,4.95,5.49,3.06,1.35,7.11,2.43,9.81,3.78,4.59,2.16,7.47,5.31,7.47,10.17,0,7.38-5.85,11.97-15.03,11.97-6.66,0-11.34-1.8-14.04-3.42-.54-.27-.63-.63-.36-1.08l1.8-3.69c.27-.54,.63-.72,1.17-.36,3.06,1.89,6.75,3.24,11.16,3.24,5.31,0,8.46-1.8,8.46-6.12Z"/><path class="d" d="M304.82,301.5c-.63,.36-1.08,.18-1.26-.27l-1.53-3.33c-.27-.54-.18-.81,.45-1.17,4.14-2.79,9.9-4.23,15.48-4.23,3.87,0,8.64,.72,11.88,4.41,2.07,2.34,3.33,5.76,3.33,10.98v25.2c0,.45-.36,.81-.81,.81h-4.23c-.45,0-.81-.36-.81-.81v-1.44h-.36c-4.14,2.43-7.74,3.15-12.24,3.15-3.69,0-7.29-.9-10.08-2.88-2.7-1.98-4.59-4.95-4.59-9.09,0-5.58,3.42-8.73,8.37-10.62,5.49-2.07,12.78-2.61,18.18-2.88v-1.35c0-3.6-.63-5.76-2.07-7.47-1.8-2.07-4.68-2.7-7.38-2.7-5.13,0-8.91,1.71-12.33,3.69Zm21.78,25.47v-12.69c-4.23,.18-9.27,.45-13.41,1.62-3.87,.99-6.84,2.97-6.84,6.57,0,5.04,5.22,7.11,10.26,7.11,3.42,0,6.84-.99,9.99-2.61Z"/><path class="d" d="M352.16,300.15c2.79-5.31,8.19-7.65,14.22-7.65,4.86,0,8.91,1.17,11.79,3.69,3.15,2.79,4.86,7.29,4.86,13.59v23.31c0,.45-.45,.81-.9,.81h-4.77c-.45,0-.9-.36-.9-.81v-21.87c0-4.5-.9-8.1-3.33-10.35-1.8-1.71-4.32-2.61-8.01-2.61-4.68,0-8.37,2.07-10.62,6.21-1.71,3.24-2.34,7.11-2.34,10.71v17.91c0,.45-.36,.81-.81,.81h-4.95c-.45,0-.9-.36-.9-.81v-38.97c0-.45,.45-.9,.9-.9h4.59c.45,0,.9,.45,.9,.9v6.03h.27Z"/><path class="d" d="M416.24,333.9c-7.29,0-13.77-1.98-18-6.21-3.33-3.24-5.31-7.92-5.31-13.95,0-5.04,1.35-9.81,4.05-13.59,3.51-4.68,9.18-7.74,16.47-7.74,3.6,0,6.3,.63,9.27,1.62v-20.52c0-.45,.36-.9,.81-.9h4.86c.54,0,.9,.45,.9,.9v59.58c0,.45-.36,.81-.9,.81h-12.15Zm6.48-5.49v-28.71c-2.97-1.08-5.31-1.62-8.91-1.62-4.86,0-8.91,2.25-11.43,5.85-1.8,2.61-2.79,5.85-2.79,9.72,0,4.41,1.44,7.74,3.69,10.08,3.15,3.24,8.01,4.68,13.59,4.68h5.85Z"/><path class="d" d="M4.05,422.73v-59.22c0-.45,.45-.9,.9-.9h4.86c.45,0,.81,.45,.81,.9v21.51c3.42-1.62,6.93-2.52,11.25-2.52,5.4,0,10.53,1.89,14.13,5.76,3.15,3.51,5.22,8.64,5.22,15.39,0,5.76-1.71,10.35-4.77,13.86-4.32,4.95-11.25,7.29-19.17,7.29-4.23,0-9.81-.27-12.33-.99-.54-.09-.9-.54-.9-1.08Zm6.57-3.87c1.98,.36,5.04,.54,7.2,.54,5.04,0,10.17-1.53,13.41-5.49,1.98-2.43,3.24-5.76,3.24-10.26,0-5.31-1.62-9.09-4.05-11.61-2.61-2.7-6.21-3.96-9.81-3.96-4.05,0-7.2,.99-9.99,2.52v28.26Z"/><path class="d" d="M51.03,384.12c0-.45,.36-.9,.81-.9h4.86c.54,0,.9,.45,.9,.9v21.96c0,3.6,.45,5.76,1.62,7.92,1.71,2.88,5.13,4.95,10.53,4.95s8.91-1.98,10.44-4.86c1.26-2.16,1.62-4.41,1.62-8.01v-21.96c0-.45,.45-.9,.9-.9h4.86c.45,0,.81,.45,.81,.9v22.59c0,5.22-.9,8.46-2.97,11.52-2.88,4.23-8.37,6.57-15.66,6.57s-12.87-2.34-15.75-6.57c-2.07-3.06-2.97-6.3-2.97-11.52v-22.59Z"/><path class="d" d="M110.43,392.13c-2.25,3.06-3.06,7.92-3.06,11.88v19.08c0,.45-.36,.81-.81,.81h-4.95c-.45,0-.9-.36-.9-.81v-38.97c0-.45,.45-.9,.9-.9h4.59c.45,0,.9,.45,.9,.9v4.95h.27c2.07-4.32,6.03-6.57,11.43-6.57,3.96,0,7.11,1.17,9.72,3.24,.45,.36,.54,.72,.27,1.17l-1.98,4.05c-.27,.45-.81,.54-1.35,.18-2.16-1.53-4.59-2.61-7.74-2.61-2.97,0-5.49,1.17-7.29,3.6Z"/><path class="d" d="M141.3,390.15c2.79-5.31,8.19-7.65,14.22-7.65,4.86,0,8.91,1.17,11.79,3.69,3.15,2.79,4.86,7.29,4.86,13.59v23.31c0,.45-.45,.81-.9,.81h-4.77c-.45,0-.9-.36-.9-.81v-21.87c0-4.5-.9-8.1-3.33-10.35-1.8-1.71-4.32-2.61-8.01-2.61-4.68,0-8.37,2.07-10.62,6.21-1.71,3.24-2.34,7.11-2.34,10.71v17.91c0,.45-.36,.81-.81,.81h-4.95c-.45,0-.9-.36-.9-.81v-38.97c0-.45,.45-.9,.9-.9h4.59c.45,0,.9,.45,.9,.9v6.03h.27Z"/><path class="d" d="M239.04,415.8c.72-.45,1.17-.18,1.35,.18l1.71,3.33c.27,.45,.09,.81-.36,1.17-3.33,2.25-9.18,4.32-15.48,4.32-6.75,0-12.33-2.34-16.02-6.57-3.42-3.78-5.31-9-5.31-15.12,0-5.76,1.98-10.98,5.4-14.67,3.42-3.69,8.37-5.94,14.85-5.94s11.61,2.61,14.76,6.48c2.97,3.78,4.59,9.09,4.23,15.48,0,.63-.45,.99-1.08,.99h-31.32c.27,3.42,1.44,6.57,3.51,9,2.61,3.15,6.57,4.95,11.52,4.95s8.91-1.62,12.24-3.6Zm-1.17-15.12c-.18-3.69-1.35-6.75-3.33-9-2.07-2.25-5.31-3.87-9.36-3.87-4.5,0-7.92,1.62-10.17,4.23-1.89,2.25-3.06,5.4-3.24,8.64h26.1Z"/><path class="d" d="M261.18,388.08c2.7-3.6,6.75-5.58,11.88-5.58,3.42,0,6.66,.81,9.18,2.7,1.98,1.44,3.42,3.33,4.32,5.76,.99-2.16,2.61-4.5,5.4-6.3,2.43-1.53,5.4-2.16,8.37-2.16,4.23,0,8.19,1.08,11.07,3.96,2.61,2.52,4.32,6.48,4.32,12.42v24.21c0,.45-.36,.81-.81,.81h-4.95c-.45,0-.9-.36-.9-.81v-22.59c0-4.14-.9-7.47-2.7-9.45-1.71-1.89-4.23-2.79-7.38-2.79-3.33,0-6.3,1.26-8.19,4.32-1.71,2.88-2.34,6.57-2.34,11.16v19.35c0,.45-.36,.81-.81,.81h-4.95c-.45,0-.9-.36-.9-.81v-22.59c0-4.14-.9-7.47-2.7-9.45-1.71-1.89-4.23-2.79-7.38-2.79-3.33,0-6.3,1.26-8.19,4.32-1.44,2.43-2.34,6.03-2.34,10.26v20.25c0,.45-.36,.81-.81,.81h-4.95c-.45,0-.9-.36-.9-.81v-38.97c0-.45,.45-.9,.9-.9h4.59c.45,0,.9,.45,.9,.9v3.96h.27Z"/><path class="d" d="M350.27,384.12c0-.45,.36-.9,.81-.9h4.86c.54,0,.9,.45,.9,.9v21.96c0,3.6,.45,5.76,1.62,7.92,1.71,2.88,5.13,4.95,10.53,4.95s8.91-1.98,10.44-4.86c1.26-2.16,1.62-4.41,1.62-8.01v-21.96c0-.45,.45-.9,.9-.9h4.86c.45,0,.81,.45,.81,.9v22.59c0,5.22-.9,8.46-2.97,11.52-2.88,4.23-8.37,6.57-15.66,6.57s-12.87-2.34-15.75-6.57c-2.07-3.06-2.97-6.3-2.97-11.52v-22.59Z"/><path class="d" d="M413,382.5c7.02,0,13.14,1.89,17.46,5.85,3.78,3.51,6.21,8.64,6.21,15.21s-1.98,11.52-5.13,14.85c-4.14,4.59-10.26,6.39-15.48,6.39-3.87,0-6.57-.45-9.54-1.8v20.88c0,.45-.36,.81-.81,.81h-4.86c-.45,0-.9-.36-.9-.81v-59.13c0-.54,.27-.99,.99-1.17,3.24-.63,7.74-1.08,12.06-1.08Zm-6.48,35.01c2.7,1.35,5.13,1.89,8.91,1.89,3.42,0,7.56-1.08,10.62-4.14,2.52-2.43,4.05-6.39,4.05-11.7,0-4.86-1.53-8.64-4.32-11.34-2.97-2.88-7.2-4.41-12.15-4.41-2.34,0-4.95,.27-7.11,.54v29.16Z"/><path class="d" d="M469.25,363.87c0-2.16,1.8-3.87,3.96-3.87s3.96,1.71,3.96,3.87-1.8,3.96-3.96,3.96-3.96-1.71-3.96-3.96Zm1.62,19.35h4.86c.45,0,.81,.45,.81,.9v38.97c0,.45-.36,.81-.81,.81h-4.86c-.45,0-.9-.36-.9-.81v-38.97c0-.45,.45-.9,.9-.9Z"/><path class="d" d="M496.25,390.15c2.79-5.31,8.19-7.65,14.22-7.65,4.86,0,8.91,1.17,11.79,3.69,3.15,2.79,4.86,7.29,4.86,13.59v23.31c0,.45-.45,.81-.9,.81h-4.77c-.45,0-.9-.36-.9-.81v-21.87c0-4.5-.9-8.1-3.33-10.35-1.8-1.71-4.32-2.61-8.01-2.61-4.68,0-8.37,2.07-10.62,6.21-1.71,3.24-2.34,7.11-2.34,10.71v17.91c0,.45-.36,.81-.81,.81h-4.95c-.45,0-.9-.36-.9-.81v-38.97c0-.45,.45-.9,.9-.9h4.59c.45,0,.9,.45,.9,.9v6.03h.27Z"/><path class="d" d="M23.85,503.37c0-3.42-2.52-4.95-5.76-6.39-2.61-1.17-6.57-2.25-9.81-3.78-3.87-1.8-6.66-4.86-6.66-9.81,0-6.84,5.31-10.98,14.85-10.98,5.58,0,9.9,1.44,12.6,2.97,.63,.36,.63,.72,.45,1.17l-1.8,3.69c-.27,.54-.63,.63-1.17,.27-3.06-1.71-6.48-2.61-9.81-2.61-5.58,0-8.28,1.89-8.28,5.49,0,2.97,2.25,4.32,4.95,5.49,3.06,1.35,7.11,2.43,9.81,3.78,4.59,2.16,7.47,5.31,7.47,10.17,0,7.38-5.85,11.97-15.03,11.97-6.66,0-11.34-1.8-14.04-3.42-.54-.27-.63-.63-.36-1.08l1.8-3.69c.27-.54,.63-.72,1.17-.36,3.06,1.89,6.75,3.24,11.16,3.24,5.31,0,8.46-1.8,8.46-6.12Z"/><path class="d" d="M44.55,478.62c3.87-3.87,9.36-6.12,15.48-6.12s11.61,2.25,15.48,6.12c3.78,3.69,6.03,8.91,6.03,15.03s-2.25,11.34-6.03,15.03c-3.87,3.87-9.36,6.12-15.48,6.12s-11.61-2.25-15.48-6.12c-3.78-3.69-6.03-8.91-6.03-15.03s2.25-11.34,6.03-15.03Zm4.5,26.01c2.61,2.97,6.48,4.77,10.98,4.77s8.37-1.8,10.98-4.77c2.61-2.79,4.05-6.66,4.05-10.98s-1.44-8.19-4.05-10.98c-2.61-2.97-6.48-4.77-10.98-4.77s-8.37,1.8-10.98,4.77c-2.61,2.79-4.05,6.66-4.05,10.98s1.44,8.19,4.05,10.98Z"/><path class="d" d="M98.64,478.08c2.7-3.6,6.75-5.58,11.88-5.58,3.42,0,6.66,.81,9.18,2.7,1.98,1.44,3.42,3.33,4.32,5.76,.99-2.16,2.61-4.5,5.4-6.3,2.43-1.53,5.4-2.16,8.37-2.16,4.23,0,8.19,1.08,11.07,3.96,2.61,2.52,4.32,6.48,4.32,12.42v24.21c0,.45-.36,.81-.81,.81h-4.95c-.45,0-.9-.36-.9-.81v-22.59c0-4.14-.9-7.47-2.7-9.45-1.71-1.89-4.23-2.79-7.38-2.79-3.33,0-6.3,1.26-8.19,4.32-1.71,2.88-2.34,6.57-2.34,11.16v19.35c0,.45-.36,.81-.81,.81h-4.95c-.45,0-.9-.36-.9-.81v-22.59c0-4.14-.9-7.47-2.7-9.45-1.71-1.89-4.23-2.79-7.38-2.79-3.33,0-6.3,1.26-8.19,4.32-1.44,2.43-2.34,6.03-2.34,10.26v20.25c0,.45-.36,.81-.81,.81h-4.95c-.45,0-.9-.36-.9-.81v-38.97c0-.45,.45-.9,.9-.9h4.59c.45,0,.9,.45,.9,.9v3.96h.27Z"/><path class="d" d="M197.18,505.8c.72-.45,1.17-.18,1.35,.18l1.71,3.33c.27,.45,.09,.81-.36,1.17-3.33,2.25-9.18,4.32-15.48,4.32-6.75,0-12.33-2.34-16.02-6.57-3.42-3.78-5.31-9-5.31-15.12,0-5.76,1.98-10.98,5.4-14.67,3.42-3.69,8.37-5.94,14.85-5.94s11.61,2.61,14.76,6.48c2.97,3.78,4.59,9.09,4.23,15.48,0,.63-.45,.99-1.08,.99h-31.32c.27,3.42,1.44,6.57,3.51,9,2.61,3.15,6.57,4.95,11.52,4.95s8.91-1.62,12.24-3.6Zm-1.17-15.12c-.18-3.69-1.35-6.75-3.33-9-2.07-2.25-5.31-3.87-9.36-3.87-4.5,0-7.92,1.62-10.17,4.23-1.89,2.25-3.06,5.4-3.24,8.64h26.1Z"/><path class="d" d="M227.42,513.18c-.18,.81-.63,.99-1.35,.99h-5.13c-.72,0-1.08-.18-1.35-.99l-13.14-38.7c-.09-.54-.18-1.26,.72-1.26h4.86c.81,0,1.26,.36,1.35,.99l10.35,31.86h.18l10.26-31.86c.18-.63,.63-.99,1.35-.99h3.78c.72,0,1.17,.36,1.35,.99l10.26,31.86h.18l10.53-31.86c.09-.63,.54-.99,1.35-.99h4.5c.9,0,.9,.72,.63,1.26l-13.23,38.7c-.27,.81-.63,.99-1.35,.99h-5.22c-.72,0-1.17-.18-1.35-.99l-9.54-29.25h-.18l-9.81,29.25Z"/><path class="d" d="M281.6,480.15c2.79-5.31,8.19-7.65,14.22-7.65,4.86,0,8.91,1.17,11.79,3.69,3.15,2.79,4.86,7.29,4.86,13.59v23.31c0,.45-.45,.81-.9,.81h-4.77c-.45,0-.9-.36-.9-.81v-21.87c0-4.5-.9-8.1-3.33-10.35-1.8-1.71-4.32-2.61-8.01-2.61-4.68,0-8.37,2.07-10.62,6.21-1.71,3.24-2.34,7.11-2.34,10.71v17.91c0,.45-.36,.81-.81,.81h-4.95c-.45,0-.9-.36-.9-.81v-59.58c0-.45,.45-.9,.9-.9h4.95c.45,0,.81,.45,.81,.9v26.64Z"/><path class="d" d="M356.48,505.8c.72-.45,1.17-.18,1.35,.18l1.71,3.33c.27,.45,.09,.81-.36,1.17-3.33,2.25-9.18,4.32-15.48,4.32-6.75,0-12.33-2.34-16.02-6.57-3.42-3.78-5.31-9-5.31-15.12,0-5.76,1.98-10.98,5.4-14.67,3.42-3.69,8.37-5.94,14.85-5.94s11.61,2.61,14.76,6.48c2.97,3.78,4.59,9.09,4.23,15.48,0,.63-.45,.99-1.08,.99h-31.32c.27,3.42,1.44,6.57,3.51,9,2.61,3.15,6.57,4.95,11.52,4.95s8.91-1.62,12.24-3.6Zm-1.17-15.12c-.18-3.69-1.35-6.75-3.33-9-2.07-2.25-5.31-3.87-9.36-3.87-4.5,0-7.92,1.62-10.17,4.23-1.89,2.25-3.06,5.4-3.24,8.64h26.1Z"/><path class="d" d="M381.68,482.13c-2.25,3.06-3.06,7.92-3.06,11.88v19.08c0,.45-.36,.81-.81,.81h-4.95c-.45,0-.9-.36-.9-.81v-38.97c0-.45,.45-.9,.9-.9h4.59c.45,0,.9,.45,.9,.9v4.95h.27c2.07-4.32,6.03-6.57,11.43-6.57,3.96,0,7.11,1.17,9.72,3.24,.45,.36,.54,.72,.27,1.17l-1.98,4.05c-.27,.45-.81,.54-1.35,.18-2.16-1.53-4.59-2.61-7.74-2.61-2.97,0-5.49,1.17-7.29,3.6Z"/><path class="d" d="M436.76,505.8c.72-.45,1.17-.18,1.35,.18l1.71,3.33c.27,.45,.09,.81-.36,1.17-3.33,2.25-9.18,4.32-15.48,4.32-6.75,0-12.33-2.34-16.02-6.57-3.42-3.78-5.31-9-5.31-15.12,0-5.76,1.98-10.98,5.4-14.67,3.42-3.69,8.37-5.94,14.85-5.94s11.61,2.61,14.76,6.48c2.97,3.78,4.59,9.09,4.23,15.48,0,.63-.45,.99-1.08,.99h-31.32c.27,3.42,1.44,6.57,3.51,9,2.61,3.15,6.57,4.95,11.52,4.95s8.91-1.62,12.24-3.6Zm-1.17-15.12c-.18-3.69-1.35-6.75-3.33-9-2.07-2.25-5.31-3.87-9.36-3.87-4.5,0-7.92,1.62-10.17,4.23-1.89,2.25-3.06,5.4-3.24,8.64h26.1Z"/><path class="d" d="M33.48,596.79c.63-.45,1.17-.27,1.35,.18l1.8,3.33c.27,.45,0,.81-.45,1.17-3.24,2.16-7.92,3.33-12.69,3.33-6.84,0-12.51-2.16-16.29-6.12-3.6-3.6-5.58-8.82-5.58-15.03,0-5.4,1.71-9.99,4.59-13.41,4.14-5.04,10.44-7.74,17.37-7.74,4.77,0,9.18,1.35,12.42,3.6,.45,.36,.72,.72,.45,1.17l-1.89,3.42c-.27,.54-.72,.63-1.35,.27-3.15-1.98-6.21-2.79-9.63-2.79-4.68,0-8.91,1.8-11.7,5.13-2.25,2.61-3.6,6.12-3.6,10.35,0,4.68,1.53,8.55,4.14,11.34,2.61,2.79,6.48,4.32,11.25,4.32,3.42,0,6.66-.63,9.81-2.52Z"/><path class="d" d="M46.8,568.62c3.87-3.87,9.36-6.12,15.48-6.12s11.61,2.25,15.48,6.12c3.78,3.69,6.03,8.91,6.03,15.03s-2.25,11.34-6.03,15.03c-3.87,3.87-9.36,6.12-15.48,6.12s-11.61-2.25-15.48-6.12c-3.78-3.69-6.03-8.91-6.03-15.03s2.25-11.34,6.03-15.03Zm4.5,26.01c2.61,2.97,6.48,4.77,10.98,4.77s8.37-1.8,10.98-4.77c2.61-2.79,4.05-6.66,4.05-10.98s-1.44-8.19-4.05-10.98c-2.61-2.97-6.48-4.77-10.98-4.77s-8.37,1.8-10.98,4.77c-2.61,2.79-4.05,6.66-4.05,10.98s1.44,8.19,4.05,10.98Z"/><path class="d" d="M97.83,568.62c3.87-3.87,9.36-6.12,15.48-6.12s11.61,2.25,15.48,6.12c3.78,3.69,6.03,8.91,6.03,15.03s-2.25,11.34-6.03,15.03c-3.87,3.87-9.36,6.12-15.48,6.12s-11.61-2.25-15.48-6.12c-3.78-3.69-6.03-8.91-6.03-15.03s2.25-11.34,6.03-15.03Zm4.5,26.01c2.61,2.97,6.48,4.77,10.98,4.77s8.37-1.8,10.98-4.77c2.61-2.79,4.05-6.66,4.05-10.98s-1.44-8.19-4.05-10.98c-2.61-2.97-6.48-4.77-10.98-4.77s-8.37,1.8-10.98,4.77c-2.61,2.79-4.05,6.66-4.05,10.98s1.44,8.19,4.05,10.98Z"/><path class="d" d="M146.16,542.61h4.86c.45,0,.81,.45,.81,.9v59.58c0,.45-.36,.81-.81,.81h-4.86c-.45,0-.9-.36-.9-.81v-59.58c0-.45,.45-.9,.9-.9Z"/><path class="d" d="M166.86,604.8c-2.34,0-4.14-1.89-4.14-4.23s1.8-4.05,4.14-4.05,4.14,1.8,4.14,4.05-1.89,4.23-4.14,4.23Z"/><path class="d" d="M50.49,633.51c0-.45,.36-.9,.9-.9h5.13c.45,0,.9,.45,.9,.9v59.58c0,.45-.45,.81-.9,.81h-5.04c-.72,0-1.08-.18-1.62-.9l-38.7-48.6v48.69c0,.45-.36,.81-.81,.81H5.13c-.45,0-.81-.36-.81-.81v-59.58c0-.45,.36-.9,.81-.9h4.95c.72,0,1.08,.18,1.71,.9l38.7,48.78v-48.78Z"/><path class="d" d="M74.25,658.62c3.87-3.87,9.36-6.12,15.48-6.12s11.61,2.25,15.48,6.12c3.78,3.69,6.03,8.91,6.03,15.03s-2.25,11.34-6.03,15.03c-3.87,3.87-9.36,6.12-15.48,6.12s-11.61-2.25-15.48-6.12c-3.78-3.69-6.03-8.91-6.03-15.03s2.25-11.34,6.03-15.03Zm4.5,26.01c2.61,2.97,6.48,4.77,10.98,4.77s8.37-1.8,10.98-4.77c2.61-2.79,4.05-6.66,4.05-10.98s-1.44-8.19-4.05-10.98c-2.61-2.97-6.48-4.77-10.98-4.77s-8.37,1.8-10.98,4.77c-2.61,2.79-4.05,6.66-4.05,10.98s1.44,8.19,4.05,10.98Z"/><path class="d" d="M136.44,693.18c-.18,.81-.63,.99-1.35,.99h-5.13c-.72,0-1.08-.18-1.35-.99l-13.14-38.7c-.09-.54-.18-1.26,.72-1.26h4.86c.81,0,1.26,.36,1.35,.99l10.35,31.86h.18l10.26-31.86c.18-.63,.63-.99,1.35-.99h3.78c.72,0,1.17,.36,1.35,.99l10.26,31.86h.18l10.53-31.86c.09-.63,.54-.99,1.35-.99h4.5c.9,0,.9,.72,.63,1.26l-13.23,38.7c-.27,.81-.63,.99-1.35,.99h-5.22c-.72,0-1.17-.18-1.35-.99l-9.54-29.25h-.18l-9.81,29.25Z"/><path class="d" d="M179.64,702.45c-.63,.18-.99,.18-1.35-.27l-.72-1.08c-.27-.54-.09-.9,.36-1.26,1.17-.9,2.7-2.07,2.7-3.69,0-2.34-3.24-2.07-3.24-5.67,0-2.34,1.62-3.96,4.23-3.96,3.42,0,4.95,2.52,5.04,6.03,.09,4.14-3.15,8.37-7.02,9.9Z"/><path class="d" d="M297.62,633.6c.18-.72,.63-.99,1.35-.99h5.58c.9,0,.9,.72,.72,1.26l-20.07,59.31c-.27,.81-.63,.99-1.44,.99h-6.03c-.72,0-1.08-.18-1.35-.99l-16.83-47.52h-.18l-16.56,47.52c-.18,.81-.63,.99-1.35,.99h-6.12c-.72,0-1.08-.18-1.35-.99l-20.34-59.31c-.18-.54-.18-1.26,.72-1.26h5.58c.81,0,1.17,.36,1.35,.99l17.01,51.48h.18l17.46-51.48c.18-.72,.54-.99,1.35-.99h4.41c.72,0,1.08,.36,1.35,.99l17.64,51.48h.18l16.74-51.48Z"/><path class="d" d="M318.68,660.15c2.79-5.31,8.19-7.65,14.22-7.65,4.86,0,8.91,1.17,11.79,3.69,3.15,2.79,4.86,7.29,4.86,13.59v23.31c0,.45-.45,.81-.9,.81h-4.77c-.45,0-.9-.36-.9-.81v-21.87c0-4.5-.9-8.1-3.33-10.35-1.8-1.71-4.32-2.61-8.01-2.61-4.68,0-8.37,2.07-10.62,6.21-1.71,3.24-2.34,7.11-2.34,10.71v17.91c0,.45-.36,.81-.81,.81h-4.95c-.45,0-.9-.36-.9-.81v-59.58c0-.45,.45-.9,.9-.9h4.95c.45,0,.81,.45,.81,.9v26.64Z"/><path class="d" d="M363.95,661.5c-.63,.36-1.08,.18-1.26-.27l-1.53-3.33c-.27-.54-.18-.81,.45-1.17,4.14-2.79,9.9-4.23,15.48-4.23,3.87,0,8.64,.72,11.88,4.41,2.07,2.34,3.33,5.76,3.33,10.98v25.2c0,.45-.36,.81-.81,.81h-4.23c-.45,0-.81-.36-.81-.81v-1.44h-.36c-4.14,2.43-7.74,3.15-12.24,3.15-3.69,0-7.29-.9-10.08-2.88-2.7-1.98-4.59-4.95-4.59-9.09,0-5.58,3.42-8.73,8.37-10.62,5.49-2.07,12.78-2.61,18.18-2.88v-1.35c0-3.6-.63-5.76-2.07-7.47-1.8-2.07-4.68-2.7-7.38-2.7-5.13,0-8.91,1.71-12.33,3.69Zm21.78,25.47v-12.69c-4.23,.18-9.27,.45-13.41,1.62-3.87,.99-6.84,2.97-6.84,6.57,0,5.04,5.22,7.11,10.26,7.11,3.42,0,6.84-.99,9.99-2.61Z"/><path class="d" d="M411.02,679.59c0,2.79,.36,5.04,1.35,6.57,1.17,1.98,3.15,2.97,6.39,2.97,2.43,0,4.77-.63,7.38-2.52,.63-.45,1.08-.36,1.35,.09l1.62,3.51c.27,.45,.09,.81-.36,1.17-3.15,2.25-7.29,3.42-11.61,3.42-4.86,0-8.01-1.53-9.99-3.96-2.07-2.61-2.79-6.39-2.79-10.44v-21.96h-4.77c-.45,0-.9-.36-.9-.81v-3.51c0-.45,.45-.9,.9-.9h4.77v-7.83c0-.45,.45-.9,.9-.9h4.86c.45,0,.9,.45,.9,.9v7.83h14.13c.45,0,.9,.45,.9,.9v3.51c0,.45-.45,.81-.9,.81h-14.13v21.15Z"/><path class="d" d="M33.48,776.79c.63-.45,1.17-.27,1.35,.18l1.8,3.33c.27,.45,0,.81-.45,1.17-3.24,2.16-7.92,3.33-12.69,3.33-6.84,0-12.51-2.16-16.29-6.12-3.6-3.6-5.58-8.82-5.58-15.03,0-5.4,1.71-9.99,4.59-13.41,4.14-5.04,10.44-7.74,17.37-7.74,4.77,0,9.18,1.35,12.42,3.6,.45,.36,.72,.72,.45,1.17l-1.89,3.42c-.27,.54-.72,.63-1.35,.27-3.15-1.98-6.21-2.79-9.63-2.79-4.68,0-8.91,1.8-11.7,5.13-2.25,2.61-3.6,6.12-3.6,10.35,0,4.68,1.53,8.55,4.14,11.34,2.61,2.79,6.48,4.32,11.25,4.32,3.42,0,6.66-.63,9.81-2.52Z"/><path class="d" d="M53.1,750.15c2.79-5.31,8.19-7.65,14.22-7.65,4.86,0,8.91,1.17,11.79,3.69,3.15,2.79,4.86,7.29,4.86,13.59v23.31c0,.45-.45,.81-.9,.81h-4.77c-.45,0-.9-.36-.9-.81v-21.87c0-4.5-.9-8.1-3.33-10.35-1.8-1.71-4.32-2.61-8.01-2.61-4.68,0-8.37,2.07-10.62,6.21-1.71,3.24-2.34,7.11-2.34,10.71v17.91c0,.45-.36,.81-.81,.81h-4.95c-.45,0-.9-.36-.9-.81v-59.58c0-.45,.45-.9,.9-.9h4.95c.45,0,.81,.45,.81,.9v26.64Z"/><path class="d" d="M98.37,751.5c-.63,.36-1.08,.18-1.26-.27l-1.53-3.33c-.27-.54-.18-.81,.45-1.17,4.14-2.79,9.9-4.23,15.48-4.23,3.87,0,8.64,.72,11.88,4.41,2.07,2.34,3.33,5.76,3.33,10.98v25.2c0,.45-.36,.81-.81,.81h-4.23c-.45,0-.81-.36-.81-.81v-1.44h-.36c-4.14,2.43-7.74,3.15-12.24,3.15-3.69,0-7.29-.9-10.08-2.88-2.7-1.98-4.59-4.95-4.59-9.09,0-5.58,3.42-8.73,8.37-10.62,5.49-2.07,12.78-2.61,18.18-2.88v-1.35c0-3.6-.63-5.76-2.07-7.47-1.8-2.07-4.68-2.7-7.38-2.7-5.13,0-8.91,1.71-12.33,3.69Zm21.78,25.47v-12.69c-4.23,.18-9.27,.45-13.41,1.62-3.87,.99-6.84,2.97-6.84,6.57,0,5.04,5.22,7.11,10.26,7.11,3.42,0,6.84-.99,9.99-2.61Z"/><path class="d" d="M168.57,748.08c2.7-3.6,6.75-5.58,11.88-5.58,3.42,0,6.66,.81,9.18,2.7,1.98,1.44,3.42,3.33,4.32,5.76,.99-2.16,2.61-4.5,5.4-6.3,2.43-1.53,5.4-2.16,8.37-2.16,4.23,0,8.19,1.08,11.07,3.96,2.61,2.52,4.32,6.48,4.32,12.42v24.21c0,.45-.36,.81-.81,.81h-4.95c-.45,0-.9-.36-.9-.81v-22.59c0-4.14-.9-7.47-2.7-9.45-1.71-1.89-4.23-2.79-7.38-2.79-3.33,0-6.3,1.26-8.19,4.32-1.71,2.88-2.34,6.57-2.34,11.16v19.35c0,.45-.36,.81-.81,.81h-4.95c-.45,0-.9-.36-.9-.81v-22.59c0-4.14-.9-7.47-2.7-9.45-1.71-1.89-4.23-2.79-7.38-2.79-3.33,0-6.3,1.26-8.19,4.32-1.44,2.43-2.34,6.03-2.34,10.26v20.25c0,.45-.36,.81-.81,.81h-4.95c-.45,0-.9-.36-.9-.81v-38.97c0-.45,.45-.9,.9-.9h4.59c.45,0,.9,.45,.9,.9v3.96h.27Z"/><path class="d" d="M237.5,751.5c-.63,.36-1.08,.18-1.26-.27l-1.53-3.33c-.27-.54-.18-.81,.45-1.17,4.14-2.79,9.9-4.23,15.48-4.23,3.87,0,8.64,.72,11.88,4.41,2.07,2.34,3.33,5.76,3.33,10.98v25.2c0,.45-.36,.81-.81,.81h-4.23c-.45,0-.81-.36-.81-.81v-1.44h-.36c-4.14,2.43-7.74,3.15-12.24,3.15-3.69,0-7.29-.9-10.08-2.88-2.7-1.98-4.59-4.95-4.59-9.09,0-5.58,3.42-8.73,8.37-10.62,5.49-2.07,12.78-2.61,18.18-2.88v-1.35c0-3.6-.63-5.76-2.07-7.47-1.8-2.07-4.68-2.7-7.38-2.7-5.13,0-8.91,1.71-12.33,3.69Zm21.78,25.47v-12.69c-4.23,.18-9.27,.45-13.41,1.62-3.87,.99-6.84,2.97-6.84,6.57,0,5.04,5.22,7.11,10.26,7.11,3.42,0,6.84-.99,9.99-2.61Z"/><path class="d" d="M330.47,776.79c.63-.45,1.17-.27,1.35,.18l1.8,3.33c.27,.45,0,.81-.45,1.17-3.24,2.16-7.92,3.33-12.69,3.33-6.84,0-12.51-2.16-16.29-6.12-3.6-3.6-5.58-8.82-5.58-15.03,0-5.4,1.71-9.99,4.59-13.41,4.14-5.04,10.44-7.74,17.37-7.74,4.77,0,9.18,1.35,12.42,3.6,.45,.36,.72,.72,.45,1.17l-1.89,3.42c-.27,.54-.72,.63-1.35,.27-3.15-1.98-6.21-2.79-9.63-2.79-4.68,0-8.91,1.8-11.7,5.13-2.25,2.61-3.6,6.12-3.6,10.35,0,4.68,1.53,8.55,4.14,11.34,2.61,2.79,6.48,4.32,11.25,4.32,3.42,0,6.66-.63,9.81-2.52Z"/><path class="d" d="M344.51,751.5c-.63,.36-1.08,.18-1.26-.27l-1.53-3.33c-.27-.54-.18-.81,.45-1.17,4.14-2.79,9.9-4.23,15.48-4.23,3.87,0,8.64,.72,11.88,4.41,2.07,2.34,3.33,5.76,3.33,10.98v25.2c0,.45-.36,.81-.81,.81h-4.23c-.45,0-.81-.36-.81-.81v-1.44h-.36c-4.14,2.43-7.74,3.15-12.24,3.15-3.69,0-7.29-.9-10.08-2.88-2.7-1.98-4.59-4.95-4.59-9.09,0-5.58,3.42-8.73,8.37-10.62,5.49-2.07,12.78-2.61,18.18-2.88v-1.35c0-3.6-.63-5.76-2.07-7.47-1.8-2.07-4.68-2.7-7.38-2.7-5.13,0-8.91,1.71-12.33,3.69Zm21.78,25.47v-12.69c-4.23,.18-9.27,.45-13.41,1.62-3.87,.99-6.84,2.97-6.84,6.57,0,5.04,5.22,7.11,10.26,7.11,3.42,0,6.84-.99,9.99-2.61Z"/><path class="d" d="M386.09,722.61h4.86c.45,0,.81,.45,.81,.9v59.58c0,.45-.36,.81-.81,.81h-4.86c-.45,0-.9-.36-.9-.81v-59.58c0-.45,.45-.9,.9-.9Z"/><path class="d" d="M405.62,722.61h4.86c.45,0,.81,.45,.81,.9v59.58c0,.45-.36,.81-.81,.81h-4.86c-.45,0-.9-.36-.9-.81v-59.58c0-.45,.45-.9,.9-.9Z"/><path class="d" d="M3.33,813.87c0-2.16,1.8-3.87,3.96-3.87s3.96,1.71,3.96,3.87-1.8,3.96-3.96,3.96-3.96-1.71-3.96-3.96Zm1.62,19.35h4.86c.45,0,.81,.45,.81,.9v38.97c0,.45-.36,.81-.81,.81H4.95c-.45,0-.9-.36-.9-.81v-38.97c0-.45,.45-.9,.9-.9Z"/><path class="d" d="M31.32,859.59c0,2.79,.36,5.04,1.35,6.57,1.17,1.98,3.15,2.97,6.39,2.97,2.43,0,4.77-.63,7.38-2.52,.63-.45,1.08-.36,1.35,.09l1.62,3.51c.27,.45,.09,.81-.36,1.17-3.15,2.25-7.29,3.42-11.61,3.42-4.86,0-8.01-1.53-9.99-3.96-2.07-2.61-2.79-6.39-2.79-10.44v-21.96h-4.77c-.45,0-.9-.36-.9-.81v-3.51c0-.45,.45-.9,.9-.9h4.77v-7.83c0-.45,.45-.9,.9-.9h4.86c.45,0,.9,.45,.9,.9v7.83h14.13c.45,0,.9,.45,.9,.9v3.51c0,.45-.45,.81-.9,.81h-14.13v21.15Z"/><path class="d" d="M54.27,824.67c-.36,.36-.9,.27-1.17-.18l-1.89-3.69c-.27-.45,0-.99,.45-1.35,3.42-3.15,9.9-7.65,19.53-7.65,5.22,0,9.99,1.71,13.32,4.77,3.51,3.06,5.58,7.47,5.58,12.78,0,7.02-3.78,10.71-9.27,14.58-6.66,4.86-8.19,7.65-8.37,13.14-.09,.63-.54,.9-1.08,.9h-3.33c-.45,0-.9-.27-1.08-.72-.36-1.17-.54-2.25-.54-3.6,0-2.97,1.53-6.21,4.14-8.91,2.16-2.34,4.95-4.23,8.28-7.02,2.88-2.43,4.41-4.95,4.41-8.37,0-3.6-1.35-6.57-3.69-8.55-2.16-1.98-5.22-3.06-8.73-3.06-7.56,0-12.6,3.6-16.56,6.93Zm15.03,50.13c-2.34,0-4.14-1.89-4.14-4.23s1.8-4.05,4.14-4.05,4.14,1.8,4.14,4.05-1.8,4.23-4.14,4.23Z"/></g></g></svg>