<?xml version="1.0" encoding="UTF-8"?><svg id="b" xmlns="http://www.w3.org/2000/svg" viewBox="0 0 529.55 750.51"><defs><style>.d{fill:#ffff36;}</style></defs><g id="c"><g><path class="d" d="M1.71,50.57c-.54-.23-.72-.62-.45-1.08l2.25-3.94c.18-.39,.54-.54,1.17-.23,3.78,2.08,9.36,5.02,17.55,5.02,4.32,0,7.74-.93,10.08-2.39,2.7-1.78,4.05-4.4,4.05-7.41,0-4.01-3.33-6.41-7.83-8.03-5.31-2.01-11.34-2.7-17.73-5.4C5.49,24.86,1.62,21.54,1.62,15.67c0-4.17,1.8-7.64,5.31-10.11C10.62,3.01,16.11,1.54,23.4,1.54s13.68,1.7,17.82,3.71c.54,.31,.63,.62,.36,1.08l-2.16,3.86c-.27,.46-.72,.62-1.26,.31-4.5-2.24-9.99-3.63-15.12-3.63s-8.73,1-10.98,2.78c-1.89,1.47-2.88,3.4-2.88,5.79,0,3.86,3.51,6.02,8.91,7.72,6.12,1.93,12.42,2.62,18.09,5.48,4.23,2.08,8.01,5.64,8.01,11.35,0,5.1-2.43,9.03-6.48,11.74-3.78,2.55-9.18,3.86-15.39,3.86-9.54,0-16.29-2.63-20.61-5.02Z"/><path class="d" d="M56.16,27.02c-.63,.31-1.08,.15-1.26-.23l-1.53-2.86c-.27-.46-.18-.69,.45-1,4.14-2.39,9.9-3.63,15.48-3.63,3.87,0,8.64,.62,11.88,3.78,2.07,2.01,3.33,4.94,3.33,9.42v21.62c0,.39-.36,.69-.81,.69h-4.23c-.45,0-.81-.31-.81-.69v-1.24h-.36c-4.14,2.08-7.74,2.7-12.24,2.7-3.69,0-7.29-.77-10.08-2.47-2.7-1.7-4.59-4.25-4.59-7.8,0-4.79,3.42-7.49,8.37-9.11,5.49-1.78,12.78-2.24,18.18-2.47v-1.16c0-3.09-.63-4.94-2.07-6.41-1.8-1.78-4.68-2.32-7.38-2.32-5.13,0-8.91,1.47-12.33,3.17Zm21.78,21.85v-10.89c-4.23,.15-9.27,.39-13.41,1.39-3.87,.85-6.84,2.55-6.84,5.64,0,4.32,5.22,6.1,10.26,6.1,3.42,0,6.84-.85,9.99-2.24Z"/><path class="d" d="M103.5,24.09c2.7-3.09,6.75-4.79,11.88-4.79,3.42,0,6.66,.69,9.18,2.32,1.98,1.24,3.42,2.86,4.32,4.94,.99-1.85,2.61-3.86,5.4-5.4,2.43-1.31,5.4-1.85,8.37-1.85,4.23,0,8.19,.93,11.07,3.4,2.61,2.16,4.32,5.56,4.32,10.65v20.77c0,.39-.36,.69-.81,.69h-4.95c-.45,0-.9-.31-.9-.69v-19.38c0-3.55-.9-6.41-2.7-8.11-1.71-1.62-4.23-2.39-7.38-2.39-3.33,0-6.3,1.08-8.19,3.71-1.71,2.47-2.34,5.64-2.34,9.57v16.6c0,.39-.36,.69-.81,.69h-4.95c-.45,0-.9-.31-.9-.69v-19.38c0-3.55-.9-6.41-2.7-8.11-1.71-1.62-4.23-2.39-7.38-2.39-3.33,0-6.3,1.08-8.19,3.71-1.44,2.08-2.34,5.17-2.34,8.8v17.37c0,.39-.36,.69-.81,.69h-4.95c-.45,0-.9-.31-.9-.69V20.69c0-.39,.45-.77,.9-.77h4.59c.45,0,.9,.39,.9,.77v3.4h.27Z"/><path class="d" d="M183.42,19.3c7.02,0,13.14,1.62,17.46,5.02,3.78,3.01,6.21,7.41,6.21,13.05s-1.98,9.88-5.13,12.74c-4.14,3.94-10.26,5.48-15.48,5.48-3.87,0-6.57-.39-9.54-1.54v17.91c0,.39-.36,.69-.81,.69h-4.86c-.45,0-.9-.31-.9-.69V21.23c0-.46,.27-.85,.99-1,3.24-.54,7.74-.93,12.06-.93Zm-6.48,30.03c2.7,1.16,5.13,1.62,8.91,1.62,3.42,0,7.56-.93,10.62-3.55,2.52-2.08,4.05-5.48,4.05-10.04,0-4.17-1.53-7.41-4.32-9.73-2.97-2.47-7.2-3.78-12.15-3.78-2.34,0-4.95,.23-7.11,.46v25.02Z"/><path class="d" d="M218.43,2.24h4.86c.45,0,.81,.39,.81,.77V54.12c0,.39-.36,.69-.81,.69h-4.86c-.45,0-.9-.31-.9-.69V3.01c0-.39,.45-.77,.9-.77Z"/><path class="d" d="M268.73,47.87c.72-.39,1.17-.15,1.35,.15l1.71,2.86c.27,.39,.09,.69-.36,1-3.33,1.93-9.18,3.71-15.48,3.71-6.75,0-12.33-2.01-16.02-5.64-3.42-3.24-5.31-7.72-5.31-12.97,0-4.94,1.98-9.42,5.4-12.59s8.37-5.1,14.85-5.1,11.61,2.24,14.76,5.56c2.97,3.24,4.59,7.8,4.23,13.28,0,.54-.45,.85-1.08,.85h-31.32c.27,2.93,1.44,5.64,3.51,7.72,2.61,2.7,6.57,4.25,11.52,4.25s8.91-1.39,12.24-3.09Zm-1.17-12.97c-.18-3.17-1.35-5.79-3.33-7.72-2.07-1.93-5.31-3.32-9.36-3.32-4.5,0-7.92,1.39-10.17,3.63-1.89,1.93-3.06,4.63-3.24,7.41h26.1Z"/><path class="d" d="M314.72,42.54c0,2.39,.36,4.32,1.35,5.64,1.17,1.7,3.15,2.55,6.39,2.55,2.43,0,4.77-.54,7.38-2.16,.63-.39,1.08-.31,1.35,.08l1.62,3.01c.27,.39,.09,.69-.36,1-3.15,1.93-7.29,2.93-11.61,2.93-4.86,0-8.01-1.31-9.99-3.4-2.07-2.24-2.79-5.48-2.79-8.96V24.4h-4.77c-.45,0-.9-.31-.9-.69v-3.01c0-.39,.45-.77,.9-.77h4.77v-6.72c0-.39,.45-.77,.9-.77h4.86c.45,0,.9,.39,.9,.77v6.72h14.13c.45,0,.9,.39,.9,.77v3.01c0,.39-.45,.69-.9,.69h-14.13v18.14Z"/><path class="d" d="M369.35,47.87c.72-.39,1.17-.15,1.35,.15l1.71,2.86c.27,.39,.09,.69-.36,1-3.33,1.93-9.18,3.71-15.48,3.71-6.75,0-12.33-2.01-16.02-5.64-3.42-3.24-5.31-7.72-5.31-12.97,0-4.94,1.98-9.42,5.4-12.59s8.37-5.1,14.85-5.1,11.61,2.24,14.76,5.56c2.97,3.24,4.59,7.8,4.23,13.28,0,.54-.45,.85-1.08,.85h-31.32c.27,2.93,1.44,5.64,3.51,7.72,2.61,2.7,6.57,4.25,11.52,4.25s8.91-1.39,12.24-3.09Zm-1.17-12.97c-.18-3.17-1.35-5.79-3.33-7.72-2.07-1.93-5.31-3.32-9.36-3.32-4.5,0-7.92,1.39-10.17,3.63-1.89,1.93-3.06,4.63-3.24,7.41h26.1Z"/><path class="d" d="M395.72,37.06l-15.93-15.91c-.54-.62-.36-1.24,.54-1.24h6.12c.72,0,1.08,.31,1.44,.77l11.88,12.43,11.97-12.43c.36-.46,.63-.77,1.44-.77h5.85c.9,0,1.17,.62,.54,1.24l-15.93,15.52,16.92,16.99c.54,.62,.36,1.16-.63,1.16h-5.94c-.72,0-1.08-.31-1.44-.62l-12.78-13.28-12.87,13.28c-.36,.39-.72,.62-1.44,.62h-5.85c-.9,0-1.17-.62-.63-1.16l16.74-16.6Z"/><path class="d" d="M436.31,42.54c0,2.39,.36,4.32,1.35,5.64,1.17,1.7,3.15,2.55,6.39,2.55,2.43,0,4.77-.54,7.38-2.16,.63-.39,1.08-.31,1.35,.08l1.62,3.01c.27,.39,.09,.69-.36,1-3.15,1.93-7.29,2.93-11.61,2.93-4.86,0-8.01-1.31-9.99-3.4-2.07-2.24-2.79-5.48-2.79-8.96V24.4h-4.77c-.45,0-.9-.31-.9-.69v-3.01c0-.39,.45-.77,.9-.77h4.77v-6.72c0-.39,.45-.77,.9-.77h4.86c.45,0,.9,.39,.9,.77v6.72h14.13c.45,0,.9,.39,.9,.77v3.01c0,.39-.45,.69-.9,.69h-14.13v18.14Z"/><path class="d" d="M482.57,3.32c0-1.85,1.8-3.32,3.96-3.32s3.96,1.47,3.96,3.32-1.8,3.4-3.96,3.4-3.96-1.47-3.96-3.4Zm1.62,16.6h4.86c.45,0,.81,.39,.81,.77V54.12c0,.39-.36,.69-.81,.69h-4.86c-.45,0-.9-.31-.9-.69V20.69c0-.39,.45-.77,.9-.77Z"/><path class="d" d="M522.71,45.79c0-2.93-2.52-4.25-5.76-5.48-2.61-1-6.57-1.93-9.81-3.24-3.87-1.54-6.66-4.17-6.66-8.42,0-5.87,5.31-9.42,14.85-9.42,5.58,0,9.9,1.24,12.6,2.55,.63,.31,.63,.62,.45,1l-1.8,3.17c-.27,.46-.63,.54-1.17,.23-3.06-1.47-6.48-2.24-9.81-2.24-5.58,0-8.28,1.62-8.28,4.71,0,2.55,2.25,3.71,4.95,4.71,3.06,1.16,7.11,2.08,9.81,3.24,4.59,1.85,7.47,4.56,7.47,8.73,0,6.33-5.85,10.27-15.03,10.27-6.66,0-11.34-1.54-14.04-2.93-.54-.23-.63-.54-.36-.93l1.8-3.17c.27-.46,.63-.62,1.17-.31,3.06,1.62,6.75,2.78,11.16,2.78,5.31,0,8.46-1.54,8.46-5.25Z"/><path class="d" d="M10.71,103.08c2.79-4.56,8.19-6.56,14.22-6.56,4.86,0,8.91,1,11.79,3.17,3.15,2.39,4.86,6.25,4.86,11.66v20c0,.39-.45,.69-.9,.69h-4.77c-.45,0-.9-.31-.9-.69v-18.76c0-3.86-.9-6.95-3.33-8.88-1.8-1.47-4.32-2.24-8.01-2.24-4.68,0-8.37,1.78-10.62,5.33-1.71,2.78-2.34,6.1-2.34,9.19v15.36c0,.39-.36,.69-.81,.69H4.95c-.45,0-.9-.31-.9-.69v-51.11c0-.39,.45-.77,.9-.77h4.95c.45,0,.81,.39,.81,.77v22.85Z"/><path class="d" d="M85.59,125.08c.72-.39,1.17-.15,1.35,.15l1.71,2.86c.27,.39,.09,.69-.36,1-3.33,1.93-9.18,3.71-15.48,3.71-6.75,0-12.33-2.01-16.02-5.64-3.42-3.24-5.31-7.72-5.31-12.97,0-4.94,1.98-9.42,5.4-12.59s8.37-5.1,14.85-5.1,11.61,2.24,14.76,5.56c2.97,3.24,4.59,7.8,4.23,13.28,0,.54-.45,.85-1.08,.85h-31.32c.27,2.93,1.44,5.64,3.51,7.72,2.61,2.7,6.57,4.25,11.52,4.25s8.91-1.39,12.24-3.09Zm-1.17-12.97c-.18-3.17-1.35-5.79-3.33-7.72-2.07-1.93-5.31-3.32-9.36-3.32-4.5,0-7.92,1.39-10.17,3.63-1.89,1.93-3.06,4.63-3.24,7.41h26.1Z"/><path class="d" d="M110.79,104.78c-2.25,2.62-3.06,6.79-3.06,10.19v16.37c0,.39-.36,.69-.81,.69h-4.95c-.45,0-.9-.31-.9-.69v-33.43c0-.39,.45-.77,.9-.77h4.59c.45,0,.9,.39,.9,.77v4.25h.27c2.07-3.71,6.03-5.64,11.43-5.64,3.96,0,7.11,1,9.72,2.78,.45,.31,.54,.62,.27,1l-1.98,3.47c-.27,.39-.81,.46-1.35,.15-2.16-1.31-4.59-2.24-7.74-2.24-2.97,0-5.49,1-7.29,3.09Z"/><path class="d" d="M165.87,125.08c.72-.39,1.17-.15,1.35,.15l1.71,2.86c.27,.39,.09,.69-.36,1-3.33,1.93-9.18,3.71-15.48,3.71-6.75,0-12.33-2.01-16.02-5.64-3.42-3.24-5.31-7.72-5.31-12.97,0-4.94,1.98-9.42,5.4-12.59s8.37-5.1,14.85-5.1,11.61,2.24,14.76,5.56c2.97,3.24,4.59,7.8,4.23,13.28,0,.54-.45,.85-1.08,.85h-31.32c.27,2.93,1.44,5.64,3.51,7.72,2.61,2.7,6.57,4.25,11.52,4.25s8.91-1.39,12.24-3.09Zm-1.17-12.97c-.18-3.17-1.35-5.79-3.33-7.72-2.07-1.93-5.31-3.32-9.36-3.32-4.5,0-7.92,1.39-10.17,3.63-1.89,1.93-3.06,4.63-3.24,7.41h26.1Z"/><path class="d" d="M181.53,139.37c-.63,.15-.99,.15-1.35-.23l-.72-.93c-.27-.46-.09-.77,.36-1.08,1.17-.77,2.7-1.78,2.7-3.17,0-2.01-3.24-1.78-3.24-4.86,0-2.01,1.62-3.4,4.23-3.4,3.42,0,4.95,2.16,5.04,5.17,.09,3.55-3.15,7.18-7.02,8.49Z"/><path class="d" d="M221.85,131.03v-50.8c0-.39,.45-.77,.9-.77h4.86c.45,0,.81,.39,.81,.77v18.45c3.42-1.39,6.93-2.16,11.25-2.16,5.4,0,10.53,1.62,14.13,4.94,3.15,3.01,5.22,7.41,5.22,13.2,0,4.94-1.71,8.88-4.77,11.89-4.32,4.25-11.25,6.25-19.17,6.25-4.23,0-9.81-.23-12.33-.85-.54-.08-.9-.46-.9-.93Zm6.57-3.32c1.98,.31,5.04,.46,7.2,.46,5.04,0,10.17-1.31,13.41-4.71,1.98-2.08,3.24-4.94,3.24-8.8,0-4.56-1.62-7.8-4.05-9.96-2.61-2.32-6.21-3.4-9.81-3.4-4.05,0-7.2,.85-9.99,2.16v24.24Z"/><path class="d" d="M279.18,104.78c-2.25,2.62-3.06,6.79-3.06,10.19v16.37c0,.39-.36,.69-.81,.69h-4.95c-.45,0-.9-.31-.9-.69v-33.43c0-.39,.45-.77,.9-.77h4.59c.45,0,.9,.39,.9,.77v4.25h.27c2.07-3.71,6.03-5.64,11.43-5.64,3.96,0,7.11,1,9.72,2.78,.45,.31,.54,.62,.27,1l-1.98,3.47c-.27,.39-.81,.46-1.35,.15-2.16-1.31-4.59-2.24-7.74-2.24-2.97,0-5.49,1-7.29,3.09Z"/><path class="d" d="M306.18,101.77c3.87-3.32,9.36-5.25,15.48-5.25s11.61,1.93,15.48,5.25c3.78,3.17,6.03,7.64,6.03,12.89s-2.25,9.73-6.03,12.89c-3.87,3.32-9.36,5.25-15.48,5.25s-11.61-1.93-15.48-5.25c-3.78-3.17-6.03-7.64-6.03-12.89s2.25-9.73,6.03-12.89Zm4.5,22.31c2.61,2.55,6.48,4.09,10.98,4.09s8.37-1.54,10.98-4.09c2.61-2.39,4.05-5.71,4.05-9.42s-1.44-7.03-4.05-9.42c-2.61-2.55-6.48-4.09-10.98-4.09s-8.37,1.54-10.98,4.09c-2.61,2.39-4.05,5.71-4.05,9.42s1.44,7.03,4.05,9.42Z"/><path class="d" d="M361.25,119.76c0,2.39,.36,4.32,1.35,5.64,1.17,1.7,3.15,2.55,6.39,2.55,2.43,0,4.77-.54,7.38-2.16,.63-.39,1.08-.31,1.35,.08l1.62,3.01c.27,.39,.09,.69-.36,1-3.15,1.93-7.29,2.93-11.61,2.93-4.86,0-8.01-1.31-9.99-3.4-2.07-2.24-2.79-5.48-2.79-8.96v-18.84h-4.77c-.45,0-.9-.31-.9-.69v-3.01c0-.39,.45-.77,.9-.77h4.77v-6.72c0-.39,.45-.77,.9-.77h4.86c.45,0,.9,.39,.9,.77v6.72h14.13c.45,0,.9,.39,.9,.77v3.01c0,.39-.45,.69-.9,.69h-14.13v18.14Z"/><path class="d" d="M392.03,103.08c2.79-4.56,8.19-6.56,14.22-6.56,4.86,0,8.91,1,11.79,3.17,3.15,2.39,4.86,6.25,4.86,11.66v20c0,.39-.45,.69-.9,.69h-4.77c-.45,0-.9-.31-.9-.69v-18.76c0-3.86-.9-6.95-3.33-8.88-1.8-1.47-4.32-2.24-8.01-2.24-4.68,0-8.37,1.78-10.62,5.33-1.71,2.78-2.34,6.1-2.34,9.19v15.36c0,.39-.36,.69-.81,.69h-4.95c-.45,0-.9-.31-.9-.69v-51.11c0-.39,.45-.77,.9-.77h4.95c.45,0,.81,.39,.81,.77v22.85Z"/><path class="d" d="M466.91,125.08c.72-.39,1.17-.15,1.35,.15l1.71,2.86c.27,.39,.09,.69-.36,1-3.33,1.93-9.18,3.71-15.48,3.71-6.75,0-12.33-2.01-16.02-5.64-3.42-3.24-5.31-7.72-5.31-12.97,0-4.94,1.98-9.42,5.4-12.59s8.37-5.1,14.85-5.1,11.61,2.24,14.76,5.56c2.97,3.24,4.59,7.8,4.23,13.28,0,.54-.45,.85-1.08,.85h-31.32c.27,2.93,1.44,5.64,3.51,7.72,2.61,2.7,6.57,4.25,11.52,4.25s8.91-1.39,12.24-3.09Zm-1.17-12.97c-.18-3.17-1.35-5.79-3.33-7.72-2.07-1.93-5.31-3.32-9.36-3.32-4.5,0-7.92,1.39-10.17,3.63-1.89,1.93-3.06,4.63-3.24,7.41h26.1Z"/><path class="d" d="M492.11,104.78c-2.25,2.62-3.06,6.79-3.06,10.19v16.37c0,.39-.36,.69-.81,.69h-4.95c-.45,0-.9-.31-.9-.69v-33.43c0-.39,.45-.77,.9-.77h4.59c.45,0,.9,.39,.9,.77v4.25h.27c2.07-3.71,6.03-5.64,11.43-5.64,3.96,0,7.11,1,9.72,2.78,.45,.31,.54,.62,.27,1l-1.98,3.47c-.27,.39-.81,.46-1.35,.15-2.16-1.31-4.59-2.24-7.74-2.24-2.97,0-5.49,1-7.29,3.09Z"/><path class="d" d="M513.71,132.8c-2.34,0-4.14-1.62-4.14-3.63s1.8-3.47,4.14-3.47,4.14,1.54,4.14,3.47-1.89,3.63-4.14,3.63Z"/><path class="d" d="M1.8,182.92c0-14.82,14.4-26.95,32.04-26.95,8.73,0,14.49,2.08,18.72,4.17,.63,.31,.81,.69,.54,1.16l-2.16,3.86c-.27,.54-.81,.46-1.26,.23-3.69-1.78-8.64-3.86-16.02-3.86-13.23,0-24.39,9.73-24.39,21.39,0,12.82,11.25,21.54,24.48,21.54,7.29,0,12.51-2.01,16.2-3.94,.54-.31,.9-.23,1.26,.23l2.16,4.01c.18,.39,.09,.69-.45,1-4.59,2.24-10.35,4.25-19.26,4.25-18.18,0-31.86-10.65-31.86-27.1Z"/><path class="d" d="M73.08,181.99c-2.25,2.62-3.06,6.79-3.06,10.19v16.37c0,.39-.36,.69-.81,.69h-4.95c-.45,0-.9-.31-.9-.69v-33.43c0-.39,.45-.77,.9-.77h4.59c.45,0,.9,.39,.9,.77v4.25h.27c2.07-3.71,6.03-5.64,11.43-5.64,3.96,0,7.11,1,9.72,2.78,.45,.31,.54,.62,.27,1l-1.98,3.47c-.27,.39-.81,.46-1.35,.15-2.16-1.31-4.59-2.24-7.74-2.24-2.97,0-5.49,1-7.29,3.09Z"/><path class="d" d="M97.92,181.45c-.63,.31-1.08,.15-1.26-.23l-1.53-2.86c-.27-.46-.18-.69,.45-1,4.14-2.39,9.9-3.63,15.48-3.63,3.87,0,8.64,.62,11.88,3.78,2.07,2.01,3.33,4.94,3.33,9.42v21.62c0,.39-.36,.69-.81,.69h-4.23c-.45,0-.81-.31-.81-.69v-1.24h-.36c-4.14,2.08-7.74,2.7-12.24,2.7-3.69,0-7.29-.77-10.08-2.47-2.7-1.7-4.59-4.25-4.59-7.8,0-4.79,3.42-7.49,8.37-9.11,5.49-1.78,12.78-2.24,18.18-2.47v-1.16c0-3.09-.63-4.94-2.07-6.41-1.8-1.78-4.68-2.32-7.38-2.32-5.13,0-8.91,1.47-12.33,3.17Zm21.78,21.85v-10.89c-4.23,.15-9.27,.39-13.41,1.39-3.87,.85-6.84,2.55-6.84,5.64,0,4.32,5.22,6.1,10.26,6.1,3.42,0,6.84-.85,9.99-2.24Z"/><path class="d" d="M158.4,200.21c0-2.93-2.52-4.25-5.76-5.48-2.61-1-6.57-1.93-9.81-3.24-3.87-1.54-6.66-4.17-6.66-8.42,0-5.87,5.31-9.42,14.85-9.42,5.58,0,9.9,1.24,12.6,2.55,.63,.31,.63,.62,.45,1l-1.8,3.17c-.27,.46-.63,.54-1.17,.23-3.06-1.47-6.48-2.24-9.81-2.24-5.58,0-8.28,1.62-8.28,4.71,0,2.55,2.25,3.71,4.95,4.71,3.06,1.16,7.11,2.08,9.81,3.24,4.59,1.85,7.47,4.56,7.47,8.73,0,6.33-5.85,10.27-15.03,10.27-6.66,0-11.34-1.54-14.04-2.93-.54-.23-.63-.54-.36-.93l1.8-3.17c.27-.46,.63-.62,1.17-.31,3.06,1.62,6.75,2.78,11.16,2.78,5.31,0,8.46-1.54,8.46-5.25Z"/><path class="d" d="M182.16,180.29c2.79-4.56,8.19-6.56,14.22-6.56,4.86,0,8.91,1,11.79,3.17,3.15,2.39,4.86,6.25,4.86,11.66v20c0,.39-.45,.69-.9,.69h-4.77c-.45,0-.9-.31-.9-.69v-18.76c0-3.86-.9-6.95-3.33-8.88-1.8-1.47-4.32-2.24-8.01-2.24-4.68,0-8.37,1.78-10.62,5.33-1.71,2.78-2.34,6.1-2.34,9.19v15.36c0,.39-.36,.69-.81,.69h-4.95c-.45,0-.9-.31-.9-.69v-51.11c0-.39,.45-.77,.9-.77h4.95c.45,0,.81,.39,.81,.77v22.85Z"/><path class="d" d="M35.64,236.89v48.87c0,.39-.36,.69-.81,.69h-4.86c-.54,0-.9-.31-.9-.69v-45.09c0-.54-.18-.77-.63-1.08-2.16-1.24-5.04-1.7-7.38-1.7-6.3,0-8.37,3.63-8.37,9.03v4.63h11.43c.45,0,.81,.39,.81,.77v3.01c0,.39-.36,.69-.81,.69H12.69v29.73c0,.39-.36,.69-.9,.69H6.93c-.45,0-.81-.31-.81-.69v-29.73H.9c-.45,0-.9-.31-.9-.69v-3.01c0-.39,.45-.77,.9-.77H6.12v-5.56c0-7.1,3.33-12.82,15.03-12.82,5.49,0,10.8,1.24,13.68,2.63,.54,.23,.81,.54,.81,1.08Z"/><path class="d" d="M52.2,256.19c3.87-3.32,9.36-5.25,15.48-5.25s11.61,1.93,15.48,5.25c3.78,3.17,6.03,7.64,6.03,12.89s-2.25,9.73-6.03,12.89c-3.87,3.32-9.36,5.25-15.48,5.25s-11.61-1.93-15.48-5.25c-3.78-3.17-6.03-7.64-6.03-12.89s2.25-9.73,6.03-12.89Zm4.5,22.31c2.61,2.55,6.48,4.09,10.98,4.09s8.37-1.54,10.98-4.09c2.61-2.39,4.05-5.71,4.05-9.42s-1.44-7.03-4.05-9.42c-2.61-2.55-6.48-4.09-10.98-4.09s-8.37,1.54-10.98,4.09c-2.61,2.39-4.05,5.71-4.05,9.42s1.44,7.03,4.05,9.42Z"/><path class="d" d="M114.39,285.84c-.18,.69-.63,.85-1.35,.85h-5.13c-.72,0-1.08-.15-1.35-.85l-13.14-33.2c-.09-.46-.18-1.08,.72-1.08h4.86c.81,0,1.26,.31,1.35,.85l10.35,27.33h.18l10.26-27.33c.18-.54,.63-.85,1.35-.85h3.78c.72,0,1.17,.31,1.35,.85l10.26,27.33h.18l10.53-27.33c.09-.54,.54-.85,1.35-.85h4.5c.9,0,.9,.62,.63,1.08l-13.23,33.2c-.27,.69-.63,.85-1.35,.85h-5.22c-.72,0-1.17-.15-1.35-.85l-9.54-25.09h-.18l-9.81,25.09Z"/><path class="d" d="M193.58,279.51c.72-.39,1.17-.15,1.35,.15l1.71,2.86c.27,.39,.09,.69-.36,1-3.33,1.93-9.18,3.71-15.48,3.71-6.75,0-12.33-2.01-16.02-5.64-3.42-3.24-5.31-7.72-5.31-12.97,0-4.94,1.98-9.42,5.4-12.59s8.37-5.1,14.85-5.1,11.61,2.24,14.76,5.56c2.97,3.24,4.59,7.8,4.23,13.28,0,.54-.45,.85-1.08,.85h-31.32c.27,2.93,1.44,5.64,3.51,7.72,2.61,2.7,6.57,4.25,11.52,4.25s8.91-1.39,12.24-3.09Zm-1.17-12.97c-.18-3.17-1.35-5.79-3.33-7.72-2.07-1.93-5.31-3.32-9.36-3.32-4.5,0-7.92,1.39-10.17,3.63-1.89,1.93-3.06,4.63-3.24,7.41h26.1Z"/><path class="d" d="M218.79,259.2c-2.25,2.62-3.06,6.79-3.06,10.19v16.37c0,.39-.36,.69-.81,.69h-4.95c-.45,0-.9-.31-.9-.69v-33.43c0-.39,.45-.77,.9-.77h4.59c.45,0,.9,.39,.9,.77v4.25h.27c2.07-3.71,6.03-5.64,11.43-5.64,3.96,0,7.11,1,9.72,2.78,.45,.31,.54,.62,.27,1l-1.98,3.47c-.27,.39-.81,.46-1.35,.15-2.16-1.31-4.59-2.24-7.74-2.24-2.97,0-5.49,1-7.29,3.09Z"/><path class="d" d="M262.79,277.42c0-2.93-2.52-4.25-5.76-5.48-2.61-1-6.57-1.93-9.81-3.24-3.87-1.54-6.66-4.17-6.66-8.42,0-5.87,5.31-9.42,14.85-9.42,5.58,0,9.9,1.24,12.6,2.55,.63,.31,.63,.62,.45,1l-1.8,3.17c-.27,.46-.63,.54-1.17,.23-3.06-1.47-6.48-2.24-9.81-2.24-5.58,0-8.28,1.62-8.28,4.71,0,2.55,2.25,3.71,4.95,4.71,3.06,1.16,7.11,2.08,9.81,3.24,4.59,1.85,7.47,4.56,7.47,8.73,0,6.33-5.85,10.27-15.03,10.27-6.66,0-11.34-1.54-14.04-2.93-.54-.23-.63-.54-.36-.93l1.8-3.17c.27-.46,.63-.62,1.17-.31,3.06,1.62,6.75,2.78,11.16,2.78,5.31,0,8.46-1.54,8.46-5.25Z"/><path class="d" d="M304.82,258.66c-.63,.31-1.08,.15-1.26-.23l-1.53-2.86c-.27-.46-.18-.69,.45-1,4.14-2.39,9.9-3.63,15.48-3.63,3.87,0,8.64,.62,11.88,3.78,2.07,2.01,3.33,4.94,3.33,9.42v21.62c0,.39-.36,.69-.81,.69h-4.23c-.45,0-.81-.31-.81-.69v-1.24h-.36c-4.14,2.08-7.74,2.7-12.24,2.7-3.69,0-7.29-.77-10.08-2.47-2.7-1.7-4.59-4.25-4.59-7.8,0-4.79,3.42-7.49,8.37-9.11,5.49-1.78,12.78-2.24,18.18-2.47v-1.16c0-3.09-.63-4.94-2.07-6.41-1.8-1.78-4.68-2.32-7.38-2.32-5.13,0-8.91,1.47-12.33,3.17Zm21.78,21.85v-10.89c-4.23,.15-9.27,.39-13.41,1.39-3.87,.85-6.84,2.55-6.84,5.64,0,4.32,5.22,6.1,10.26,6.1,3.42,0,6.84-.85,9.99-2.24Z"/><path class="d" d="M352.16,257.5c2.79-4.56,8.19-6.56,14.22-6.56,4.86,0,8.91,1,11.79,3.17,3.15,2.39,4.86,6.25,4.86,11.66v20c0,.39-.45,.69-.9,.69h-4.77c-.45,0-.9-.31-.9-.69v-18.76c0-3.86-.9-6.95-3.33-8.88-1.8-1.47-4.32-2.24-8.01-2.24-4.68,0-8.37,1.78-10.62,5.33-1.71,2.78-2.34,6.1-2.34,9.19v15.37c0,.39-.36,.69-.81,.69h-4.95c-.45,0-.9-.31-.9-.69v-33.43c0-.39,.45-.77,.9-.77h4.59c.45,0,.9,.39,.9,.77v5.17h.27Z"/><path class="d" d="M416.24,286.46c-7.29,0-13.77-1.7-18-5.33-3.33-2.78-5.31-6.79-5.31-11.97,0-4.32,1.35-8.42,4.05-11.66,3.51-4.01,9.18-6.64,16.47-6.64,3.6,0,6.3,.54,9.27,1.39v-17.6c0-.39,.36-.77,.81-.77h4.86c.54,0,.9,.39,.9,.77v51.11c0,.39-.36,.69-.9,.69h-12.15Zm6.48-4.71v-24.63c-2.97-.93-5.31-1.39-8.91-1.39-4.86,0-8.91,1.93-11.43,5.02-1.8,2.24-2.79,5.02-2.79,8.34,0,3.78,1.44,6.64,3.69,8.65,3.15,2.78,8.01,4.01,13.59,4.01h5.85Z"/><path class="d" d="M4.05,362.67v-50.8c0-.39,.45-.77,.9-.77h4.86c.45,0,.81,.39,.81,.77v18.45c3.42-1.39,6.93-2.16,11.25-2.16,5.4,0,10.53,1.62,14.13,4.94,3.15,3.01,5.22,7.41,5.22,13.2,0,4.94-1.71,8.88-4.77,11.89-4.32,4.25-11.25,6.25-19.17,6.25-4.23,0-9.81-.23-12.33-.85-.54-.08-.9-.46-.9-.93Zm6.57-3.32c1.98,.31,5.04,.46,7.2,.46,5.04,0,10.17-1.31,13.41-4.71,1.98-2.09,3.24-4.94,3.24-8.8,0-4.56-1.62-7.8-4.05-9.96-2.61-2.32-6.21-3.4-9.81-3.4-4.05,0-7.2,.85-9.99,2.16v24.24Z"/><path class="d" d="M51.03,329.54c0-.39,.36-.77,.81-.77h4.86c.54,0,.9,.39,.9,.77v18.84c0,3.09,.45,4.94,1.62,6.79,1.71,2.47,5.13,4.25,10.53,4.25s8.91-1.7,10.44-4.17c1.26-1.85,1.62-3.78,1.62-6.87v-18.84c0-.39,.45-.77,.9-.77h4.86c.45,0,.81,.39,.81,.77v19.38c0,4.48-.9,7.26-2.97,9.88-2.88,3.63-8.37,5.64-15.66,5.64s-12.87-2.01-15.75-5.64c-2.07-2.62-2.97-5.4-2.97-9.88v-19.38Z"/><path class="d" d="M110.43,336.42c-2.25,2.62-3.06,6.79-3.06,10.19v16.37c0,.39-.36,.69-.81,.69h-4.95c-.45,0-.9-.31-.9-.69v-33.43c0-.39,.45-.77,.9-.77h4.59c.45,0,.9,.39,.9,.77v4.25h.27c2.07-3.71,6.03-5.64,11.43-5.64,3.96,0,7.11,1,9.72,2.78,.45,.31,.54,.62,.27,1l-1.98,3.47c-.27,.39-.81,.46-1.35,.15-2.16-1.31-4.59-2.24-7.74-2.24-2.97,0-5.49,1-7.29,3.09Z"/><path class="d" d="M141.3,334.72c2.79-4.56,8.19-6.56,14.22-6.56,4.86,0,8.91,1,11.79,3.17,3.15,2.39,4.86,6.25,4.86,11.66v20c0,.39-.45,.69-.9,.69h-4.77c-.45,0-.9-.31-.9-.69v-18.76c0-3.86-.9-6.95-3.33-8.88-1.8-1.47-4.32-2.24-8.01-2.24-4.68,0-8.37,1.78-10.62,5.33-1.71,2.78-2.34,6.1-2.34,9.19v15.36c0,.39-.36,.69-.81,.69h-4.95c-.45,0-.9-.31-.9-.69v-33.43c0-.39,.45-.77,.9-.77h4.59c.45,0,.9,.39,.9,.77v5.17h.27Z"/><path class="d" d="M239.04,356.72c.72-.39,1.17-.15,1.35,.15l1.71,2.86c.27,.39,.09,.69-.36,1-3.33,1.93-9.18,3.71-15.48,3.71-6.75,0-12.33-2.01-16.02-5.64-3.42-3.24-5.31-7.72-5.31-12.97,0-4.94,1.98-9.42,5.4-12.59,3.42-3.17,8.37-5.1,14.85-5.1s11.61,2.24,14.76,5.56c2.97,3.24,4.59,7.8,4.23,13.28,0,.54-.45,.85-1.08,.85h-31.32c.27,2.93,1.44,5.64,3.51,7.72,2.61,2.7,6.57,4.25,11.52,4.25s8.91-1.39,12.24-3.09Zm-1.17-12.97c-.18-3.17-1.35-5.79-3.33-7.72-2.07-1.93-5.31-3.32-9.36-3.32-4.5,0-7.92,1.39-10.17,3.63-1.89,1.93-3.06,4.63-3.24,7.41h26.1Z"/><path class="d" d="M261.18,332.94c2.7-3.09,6.75-4.79,11.88-4.79,3.42,0,6.66,.7,9.18,2.32,1.98,1.23,3.42,2.86,4.32,4.94,.99-1.85,2.61-3.86,5.4-5.4,2.43-1.31,5.4-1.85,8.37-1.85,4.23,0,8.19,.93,11.07,3.4,2.61,2.16,4.32,5.56,4.32,10.66v20.77c0,.39-.36,.69-.81,.69h-4.95c-.45,0-.9-.31-.9-.69v-19.38c0-3.55-.9-6.41-2.7-8.11-1.71-1.62-4.23-2.39-7.38-2.39-3.33,0-6.3,1.08-8.19,3.71-1.71,2.47-2.34,5.64-2.34,9.57v16.6c0,.39-.36,.69-.81,.69h-4.95c-.45,0-.9-.31-.9-.69v-19.38c0-3.55-.9-6.41-2.7-8.11-1.71-1.62-4.23-2.39-7.38-2.39-3.33,0-6.3,1.08-8.19,3.71-1.44,2.08-2.34,5.17-2.34,8.8v17.37c0,.39-.36,.69-.81,.69h-4.95c-.45,0-.9-.31-.9-.69v-33.43c0-.39,.45-.77,.9-.77h4.59c.45,0,.9,.39,.9,.77v3.4h.27Z"/><path class="d" d="M350.27,329.54c0-.39,.36-.77,.81-.77h4.86c.54,0,.9,.39,.9,.77v18.84c0,3.09,.45,4.94,1.62,6.79,1.71,2.47,5.13,4.25,10.53,4.25s8.91-1.7,10.44-4.17c1.26-1.85,1.62-3.78,1.62-6.87v-18.84c0-.39,.45-.77,.9-.77h4.86c.45,0,.81,.39,.81,.77v19.38c0,4.48-.9,7.26-2.97,9.88-2.88,3.63-8.37,5.64-15.66,5.64s-12.87-2.01-15.75-5.64c-2.07-2.62-2.97-5.4-2.97-9.88v-19.38Z"/><path class="d" d="M413,328.15c7.02,0,13.14,1.62,17.46,5.02,3.78,3.01,6.21,7.41,6.21,13.05s-1.98,9.88-5.13,12.74c-4.14,3.94-10.26,5.48-15.48,5.48-3.87,0-6.57-.39-9.54-1.54v17.91c0,.39-.36,.69-.81,.69h-4.86c-.45,0-.9-.31-.9-.69v-50.73c0-.46,.27-.85,.99-1,3.24-.54,7.74-.93,12.06-.93Zm-6.48,30.03c2.7,1.16,5.13,1.62,8.91,1.62,3.42,0,7.56-.93,10.62-3.55,2.52-2.08,4.05-5.48,4.05-10.04,0-4.17-1.53-7.41-4.32-9.73-2.97-2.47-7.2-3.78-12.15-3.78-2.34,0-4.95,.23-7.11,.46v25.02Z"/><path class="d" d="M469.25,312.17c0-1.85,1.8-3.32,3.96-3.32s3.96,1.47,3.96,3.32-1.8,3.4-3.96,3.4-3.96-1.47-3.96-3.4Zm1.62,16.6h4.86c.45,0,.81,.39,.81,.77v33.43c0,.39-.36,.69-.81,.69h-4.86c-.45,0-.9-.31-.9-.69v-33.43c0-.39,.45-.77,.9-.77Z"/><path class="d" d="M496.25,334.72c2.79-4.56,8.19-6.56,14.22-6.56,4.86,0,8.91,1,11.79,3.17,3.15,2.39,4.86,6.25,4.86,11.66v20c0,.39-.45,.69-.9,.69h-4.77c-.45,0-.9-.31-.9-.69v-18.76c0-3.86-.9-6.95-3.33-8.88-1.8-1.47-4.32-2.24-8.01-2.24-4.68,0-8.37,1.78-10.62,5.33-1.71,2.78-2.34,6.1-2.34,9.19v15.36c0,.39-.36,.69-.81,.69h-4.95c-.45,0-.9-.31-.9-.69v-33.43c0-.39,.45-.77,.9-.77h4.59c.45,0,.9,.39,.9,.77v5.17h.27Z"/><path class="d" d="M23.85,431.85c0-2.93-2.52-4.25-5.76-5.48-2.61-1-6.57-1.93-9.81-3.24-3.87-1.54-6.66-4.17-6.66-8.42,0-5.87,5.31-9.42,14.85-9.42,5.58,0,9.9,1.23,12.6,2.55,.63,.31,.63,.62,.45,1l-1.8,3.17c-.27,.46-.63,.54-1.17,.23-3.06-1.47-6.48-2.24-9.81-2.24-5.58,0-8.28,1.62-8.28,4.71,0,2.55,2.25,3.71,4.95,4.71,3.06,1.16,7.11,2.08,9.81,3.24,4.59,1.85,7.47,4.56,7.47,8.73,0,6.33-5.85,10.27-15.03,10.27-6.66,0-11.34-1.54-14.04-2.93-.54-.23-.63-.54-.36-.93l1.8-3.17c.27-.46,.63-.62,1.17-.31,3.06,1.62,6.75,2.78,11.16,2.78,5.31,0,8.46-1.54,8.46-5.25Z"/><path class="d" d="M44.55,410.62c3.87-3.32,9.36-5.25,15.48-5.25s11.61,1.93,15.48,5.25c3.78,3.17,6.03,7.64,6.03,12.89s-2.25,9.73-6.03,12.89c-3.87,3.32-9.36,5.25-15.48,5.25s-11.61-1.93-15.48-5.25c-3.78-3.17-6.03-7.64-6.03-12.89s2.25-9.73,6.03-12.89Zm4.5,22.31c2.61,2.55,6.48,4.09,10.98,4.09s8.37-1.54,10.98-4.09c2.61-2.39,4.05-5.71,4.05-9.42s-1.44-7.03-4.05-9.42c-2.61-2.55-6.48-4.09-10.98-4.09s-8.37,1.54-10.98,4.09c-2.61,2.39-4.05,5.71-4.05,9.42s1.44,7.03,4.05,9.42Z"/><path class="d" d="M98.64,410.15c2.7-3.09,6.75-4.79,11.88-4.79,3.42,0,6.66,.7,9.18,2.32,1.98,1.23,3.42,2.86,4.32,4.94,.99-1.85,2.61-3.86,5.4-5.4,2.43-1.31,5.4-1.85,8.37-1.85,4.23,0,8.19,.93,11.07,3.4,2.61,2.16,4.32,5.56,4.32,10.66v20.77c0,.39-.36,.69-.81,.69h-4.95c-.45,0-.9-.31-.9-.69v-19.38c0-3.55-.9-6.41-2.7-8.11-1.71-1.62-4.23-2.39-7.38-2.39-3.33,0-6.3,1.08-8.19,3.71-1.71,2.47-2.34,5.64-2.34,9.57v16.6c0,.39-.36,.69-.81,.69h-4.95c-.45,0-.9-.31-.9-.69v-19.38c0-3.55-.9-6.41-2.7-8.11-1.71-1.62-4.23-2.39-7.38-2.39-3.33,0-6.3,1.08-8.19,3.71-1.44,2.08-2.34,5.17-2.34,8.8v17.37c0,.39-.36,.69-.81,.69h-4.95c-.45,0-.9-.31-.9-.69v-33.43c0-.39,.45-.77,.9-.77h4.59c.45,0,.9,.39,.9,.77v3.4h.27Z"/><path class="d" d="M197.18,433.94c.72-.39,1.17-.15,1.35,.15l1.71,2.86c.27,.39,.09,.69-.36,1-3.33,1.93-9.18,3.71-15.48,3.71-6.75,0-12.33-2.01-16.02-5.64-3.42-3.24-5.31-7.72-5.31-12.97,0-4.94,1.98-9.42,5.4-12.59,3.42-3.17,8.37-5.1,14.85-5.1s11.61,2.24,14.76,5.56c2.97,3.24,4.59,7.8,4.23,13.28,0,.54-.45,.85-1.08,.85h-31.32c.27,2.93,1.44,5.64,3.51,7.72,2.61,2.7,6.57,4.25,11.52,4.25s8.91-1.39,12.24-3.09Zm-1.17-12.97c-.18-3.17-1.35-5.79-3.33-7.72-2.07-1.93-5.31-3.32-9.36-3.32-4.5,0-7.92,1.39-10.17,3.63-1.89,1.93-3.06,4.63-3.24,7.41h26.1Z"/><path class="d" d="M227.42,440.27c-.18,.69-.63,.85-1.35,.85h-5.13c-.72,0-1.08-.15-1.35-.85l-13.14-33.2c-.09-.46-.18-1.08,.72-1.08h4.86c.81,0,1.26,.31,1.35,.85l10.35,27.33h.18l10.26-27.33c.18-.54,.63-.85,1.35-.85h3.78c.72,0,1.17,.31,1.35,.85l10.26,27.33h.18l10.53-27.33c.09-.54,.54-.85,1.35-.85h4.5c.9,0,.9,.62,.63,1.08l-13.23,33.2c-.27,.69-.63,.85-1.35,.85h-5.22c-.72,0-1.17-.15-1.35-.85l-9.54-25.09h-.18l-9.81,25.09Z"/><path class="d" d="M281.6,411.93c2.79-4.56,8.19-6.56,14.22-6.56,4.86,0,8.91,1,11.79,3.17,3.15,2.39,4.86,6.25,4.86,11.66v20c0,.39-.45,.69-.9,.69h-4.77c-.45,0-.9-.31-.9-.69v-18.76c0-3.86-.9-6.95-3.33-8.88-1.8-1.47-4.32-2.24-8.01-2.24-4.68,0-8.37,1.78-10.62,5.33-1.71,2.78-2.34,6.1-2.34,9.19v15.36c0,.39-.36,.69-.81,.69h-4.95c-.45,0-.9-.31-.9-.69v-51.11c0-.39,.45-.77,.9-.77h4.95c.45,0,.81,.39,.81,.77v22.85Z"/><path class="d" d="M356.48,433.94c.72-.39,1.17-.15,1.35,.15l1.71,2.86c.27,.39,.09,.69-.36,1-3.33,1.93-9.18,3.71-15.48,3.71-6.75,0-12.33-2.01-16.02-5.64-3.42-3.24-5.31-7.72-5.31-12.97,0-4.94,1.98-9.42,5.4-12.59,3.42-3.17,8.37-5.1,14.85-5.1s11.61,2.24,14.76,5.56c2.97,3.24,4.59,7.8,4.23,13.28,0,.54-.45,.85-1.08,.85h-31.32c.27,2.93,1.44,5.64,3.51,7.72,2.61,2.7,6.57,4.25,11.52,4.25s8.91-1.39,12.24-3.09Zm-1.17-12.97c-.18-3.17-1.35-5.79-3.33-7.72-2.07-1.93-5.31-3.32-9.36-3.32-4.5,0-7.92,1.39-10.17,3.63-1.89,1.93-3.06,4.63-3.24,7.41h26.1Z"/><path class="d" d="M381.68,413.63c-2.25,2.62-3.06,6.79-3.06,10.19v16.37c0,.39-.36,.69-.81,.69h-4.95c-.45,0-.9-.31-.9-.69v-33.43c0-.39,.45-.77,.9-.77h4.59c.45,0,.9,.39,.9,.77v4.25h.27c2.07-3.71,6.03-5.64,11.43-5.64,3.96,0,7.11,1,9.72,2.78,.45,.31,.54,.62,.27,1l-1.98,3.47c-.27,.39-.81,.46-1.35,.15-2.16-1.31-4.59-2.24-7.74-2.24-2.97,0-5.49,1-7.29,3.09Z"/><path class="d" d="M436.76,433.94c.72-.39,1.17-.15,1.35,.15l1.71,2.86c.27,.39,.09,.69-.36,1-3.33,1.93-9.18,3.71-15.48,3.71-6.75,0-12.33-2.01-16.02-5.64-3.42-3.24-5.31-7.72-5.31-12.97,0-4.94,1.98-9.42,5.4-12.59,3.42-3.17,8.37-5.1,14.85-5.1s11.61,2.24,14.76,5.56c2.97,3.24,4.59,7.8,4.23,13.28,0,.54-.45,.85-1.08,.85h-31.32c.27,2.93,1.44,5.64,3.51,7.72,2.61,2.7,6.57,4.25,11.52,4.25s8.91-1.39,12.24-3.09Zm-1.17-12.97c-.18-3.17-1.35-5.79-3.33-7.72-2.07-1.93-5.31-3.32-9.36-3.32-4.5,0-7.92,1.39-10.17,3.63-1.89,1.93-3.06,4.63-3.24,7.41h26.1Z"/><path class="d" d="M33.48,512c.63-.39,1.17-.23,1.35,.15l1.8,2.86c.27,.39,0,.69-.45,1-3.24,1.85-7.92,2.86-12.69,2.86-6.84,0-12.51-1.85-16.29-5.25-3.6-3.09-5.58-7.57-5.58-12.89,0-4.63,1.71-8.57,4.59-11.5,4.14-4.32,10.44-6.64,17.37-6.64,4.77,0,9.18,1.16,12.42,3.09,.45,.31,.72,.62,.45,1l-1.89,2.93c-.27,.46-.72,.54-1.35,.23-3.15-1.7-6.21-2.39-9.63-2.39-4.68,0-8.91,1.54-11.7,4.4-2.25,2.24-3.6,5.25-3.6,8.88,0,4.01,1.53,7.34,4.14,9.73,2.61,2.39,6.48,3.71,11.25,3.71,3.42,0,6.66-.54,9.81-2.16Z"/><path class="d" d="M46.8,487.83c3.87-3.32,9.36-5.25,15.48-5.25s11.61,1.93,15.48,5.25c3.78,3.17,6.03,7.64,6.03,12.89s-2.25,9.73-6.03,12.89c-3.87,3.32-9.36,5.25-15.48,5.25s-11.61-1.93-15.48-5.25c-3.78-3.17-6.03-7.64-6.03-12.89s2.25-9.73,6.03-12.89Zm4.5,22.31c2.61,2.55,6.48,4.09,10.98,4.09s8.37-1.54,10.98-4.09c2.61-2.39,4.05-5.71,4.05-9.42s-1.44-7.03-4.05-9.42c-2.61-2.55-6.48-4.09-10.98-4.09s-8.37,1.54-10.98,4.09c-2.61,2.39-4.05,5.71-4.05,9.42s1.44,7.03,4.05,9.42Z"/><path class="d" d="M97.83,487.83c3.87-3.32,9.36-5.25,15.48-5.25s11.61,1.93,15.48,5.25c3.78,3.17,6.03,7.64,6.03,12.89s-2.25,9.73-6.03,12.89c-3.87,3.32-9.36,5.25-15.48,5.25s-11.61-1.93-15.48-5.25c-3.78-3.17-6.03-7.64-6.03-12.89s2.25-9.73,6.03-12.89Zm4.5,22.31c2.61,2.55,6.48,4.09,10.98,4.09s8.37-1.54,10.98-4.09c2.61-2.39,4.05-5.71,4.05-9.42s-1.44-7.03-4.05-9.42c-2.61-2.55-6.48-4.09-10.98-4.09s-8.37,1.54-10.98,4.09c-2.61,2.39-4.05,5.71-4.05,9.42s1.44,7.03,4.05,9.42Z"/><path class="d" d="M146.16,465.52h4.86c.45,0,.81,.39,.81,.77v51.11c0,.39-.36,.69-.81,.69h-4.86c-.45,0-.9-.31-.9-.69v-51.11c0-.39,.45-.77,.9-.77Z"/><path class="d" d="M166.86,518.87c-2.34,0-4.14-1.62-4.14-3.63s1.8-3.47,4.14-3.47,4.14,1.54,4.14,3.47-1.89,3.63-4.14,3.63Z"/><path class="d" d="M50.49,543.5c0-.39,.36-.77,.9-.77h5.13c.45,0,.9,.39,.9,.77v51.11c0,.39-.45,.69-.9,.69h-5.04c-.72,0-1.08-.15-1.62-.77l-38.7-41.69v41.77c0,.39-.36,.69-.81,.69H5.13c-.45,0-.81-.31-.81-.69v-51.11c0-.39,.36-.77,.81-.77h4.95c.72,0,1.08,.15,1.71,.77l38.7,41.85v-41.85Z"/><path class="d" d="M74.25,565.04c3.87-3.32,9.36-5.25,15.48-5.25s11.61,1.93,15.48,5.25c3.78,3.17,6.03,7.64,6.03,12.89s-2.25,9.73-6.03,12.89c-3.87,3.32-9.36,5.25-15.48,5.25s-11.61-1.93-15.48-5.25c-3.78-3.17-6.03-7.64-6.03-12.89s2.25-9.73,6.03-12.89Zm4.5,22.31c2.61,2.55,6.48,4.09,10.98,4.09s8.37-1.54,10.98-4.09c2.61-2.39,4.05-5.71,4.05-9.42s-1.44-7.03-4.05-9.42c-2.61-2.55-6.48-4.09-10.98-4.09s-8.37,1.54-10.98,4.09c-2.61,2.39-4.05,5.71-4.05,9.42s1.44,7.03,4.05,9.42Z"/><path class="d" d="M136.44,594.69c-.18,.69-.63,.85-1.35,.85h-5.13c-.72,0-1.08-.15-1.35-.85l-13.14-33.2c-.09-.46-.18-1.08,.72-1.08h4.86c.81,0,1.26,.31,1.35,.85l10.35,27.33h.18l10.26-27.33c.18-.54,.63-.85,1.35-.85h3.78c.72,0,1.17,.31,1.35,.85l10.26,27.33h.18l10.53-27.33c.09-.54,.54-.85,1.35-.85h4.5c.9,0,.9,.62,.63,1.08l-13.23,33.2c-.27,.69-.63,.85-1.35,.85h-5.22c-.72,0-1.17-.15-1.35-.85l-9.54-25.09h-.18l-9.81,25.09Z"/><path class="d" d="M179.64,602.65c-.63,.15-.99,.15-1.35-.23l-.72-.93c-.27-.46-.09-.77,.36-1.08,1.17-.77,2.7-1.78,2.7-3.17,0-2.01-3.24-1.78-3.24-4.86,0-2.01,1.62-3.4,4.23-3.4,3.42,0,4.95,2.16,5.04,5.17,.09,3.55-3.15,7.18-7.02,8.49Z"/><path class="d" d="M297.62,543.58c.18-.62,.63-.85,1.35-.85h5.58c.9,0,.9,.62,.72,1.08l-20.07,50.88c-.27,.69-.63,.85-1.44,.85h-6.03c-.72,0-1.08-.15-1.35-.85l-16.83-40.77h-.18l-16.56,40.77c-.18,.69-.63,.85-1.35,.85h-6.12c-.72,0-1.08-.15-1.35-.85l-20.34-50.88c-.18-.46-.18-1.08,.72-1.08h5.58c.81,0,1.17,.31,1.35,.85l17.01,44.16h.18l17.46-44.16c.18-.62,.54-.85,1.35-.85h4.41c.72,0,1.08,.31,1.35,.85l17.64,44.16h.18l16.74-44.16Z"/><path class="d" d="M318.68,566.36c2.79-4.56,8.19-6.56,14.22-6.56,4.86,0,8.91,1,11.79,3.17,3.15,2.39,4.86,6.25,4.86,11.66v20c0,.39-.45,.69-.9,.69h-4.77c-.45,0-.9-.31-.9-.69v-18.76c0-3.86-.9-6.95-3.33-8.88-1.8-1.47-4.32-2.24-8.01-2.24-4.68,0-8.37,1.78-10.62,5.33-1.71,2.78-2.34,6.1-2.34,9.19v15.36c0,.39-.36,.69-.81,.69h-4.95c-.45,0-.9-.31-.9-.69v-51.11c0-.39,.45-.77,.9-.77h4.95c.45,0,.81,.39,.81,.77v22.85Z"/><path class="d" d="M363.95,567.51c-.63,.31-1.08,.15-1.26-.23l-1.53-2.86c-.27-.46-.18-.7,.45-1,4.14-2.39,9.9-3.63,15.48-3.63,3.87,0,8.64,.62,11.88,3.78,2.07,2.01,3.33,4.94,3.33,9.42v21.62c0,.39-.36,.69-.81,.69h-4.23c-.45,0-.81-.31-.81-.69v-1.24h-.36c-4.14,2.08-7.74,2.7-12.24,2.7-3.69,0-7.29-.77-10.08-2.47-2.7-1.7-4.59-4.25-4.59-7.8,0-4.79,3.42-7.49,8.37-9.11,5.49-1.78,12.78-2.24,18.18-2.47v-1.16c0-3.09-.63-4.94-2.07-6.41-1.8-1.78-4.68-2.32-7.38-2.32-5.13,0-8.91,1.47-12.33,3.17Zm21.78,21.85v-10.89c-4.23,.15-9.27,.39-13.41,1.39-3.87,.85-6.84,2.55-6.84,5.64,0,4.32,5.22,6.1,10.26,6.1,3.42,0,6.84-.85,9.99-2.24Z"/><path class="d" d="M411.02,583.03c0,2.39,.36,4.32,1.35,5.64,1.17,1.7,3.15,2.55,6.39,2.55,2.43,0,4.77-.54,7.38-2.16,.63-.39,1.08-.31,1.35,.08l1.62,3.01c.27,.39,.09,.69-.36,1-3.15,1.93-7.29,2.93-11.61,2.93-4.86,0-8.01-1.31-9.99-3.4-2.07-2.24-2.79-5.48-2.79-8.96v-18.84h-4.77c-.45,0-.9-.31-.9-.69v-3.01c0-.39,.45-.77,.9-.77h4.77v-6.72c0-.39,.45-.77,.9-.77h4.86c.45,0,.9,.39,.9,.77v6.72h14.13c.45,0,.9,.39,.9,.77v3.01c0,.39-.45,.69-.9,.69h-14.13v18.14Z"/><path class="d" d="M33.48,666.42c.63-.39,1.17-.23,1.35,.15l1.8,2.86c.27,.39,0,.69-.45,1-3.24,1.85-7.92,2.86-12.69,2.86-6.84,0-12.51-1.85-16.29-5.25-3.6-3.09-5.58-7.57-5.58-12.89,0-4.63,1.71-8.57,4.59-11.5,4.14-4.32,10.44-6.64,17.37-6.64,4.77,0,9.18,1.16,12.42,3.09,.45,.31,.72,.62,.45,1l-1.89,2.93c-.27,.46-.72,.54-1.35,.23-3.15-1.7-6.21-2.39-9.63-2.39-4.68,0-8.91,1.54-11.7,4.4-2.25,2.24-3.6,5.25-3.6,8.88,0,4.01,1.53,7.34,4.14,9.73,2.61,2.39,6.48,3.71,11.25,3.71,3.42,0,6.66-.54,9.81-2.16Z"/><path class="d" d="M53.1,643.57c2.79-4.56,8.19-6.56,14.22-6.56,4.86,0,8.91,1,11.79,3.17,3.15,2.39,4.86,6.25,4.86,11.66v20c0,.39-.45,.69-.9,.69h-4.77c-.45,0-.9-.31-.9-.69v-18.76c0-3.86-.9-6.95-3.33-8.88-1.8-1.47-4.32-2.24-8.01-2.24-4.68,0-8.37,1.78-10.62,5.33-1.71,2.78-2.34,6.1-2.34,9.19v15.36c0,.39-.36,.69-.81,.69h-4.95c-.45,0-.9-.31-.9-.69v-51.11c0-.39,.45-.77,.9-.77h4.95c.45,0,.81,.39,.81,.77v22.85Z"/><path class="d" d="M98.37,644.73c-.63,.31-1.08,.15-1.26-.23l-1.53-2.86c-.27-.46-.18-.7,.45-1,4.14-2.39,9.9-3.63,15.48-3.63,3.87,0,8.64,.62,11.88,3.78,2.07,2.01,3.33,4.94,3.33,9.42v21.62c0,.39-.36,.69-.81,.69h-4.23c-.45,0-.81-.31-.81-.69v-1.24h-.36c-4.14,2.08-7.74,2.7-12.24,2.7-3.69,0-7.29-.77-10.08-2.47-2.7-1.7-4.59-4.25-4.59-7.8,0-4.79,3.42-7.49,8.37-9.11,5.49-1.78,12.78-2.24,18.18-2.47v-1.16c0-3.09-.63-4.94-2.07-6.41-1.8-1.78-4.68-2.32-7.38-2.32-5.13,0-8.91,1.47-12.33,3.17Zm21.78,21.85v-10.89c-4.23,.15-9.27,.39-13.41,1.39-3.87,.85-6.84,2.55-6.84,5.64,0,4.32,5.22,6.1,10.26,6.1,3.42,0,6.84-.85,9.99-2.24Z"/><path class="d" d="M168.57,641.79c2.7-3.09,6.75-4.79,11.88-4.79,3.42,0,6.66,.7,9.18,2.32,1.98,1.23,3.42,2.86,4.32,4.94,.99-1.85,2.61-3.86,5.4-5.4,2.43-1.31,5.4-1.85,8.37-1.85,4.23,0,8.19,.93,11.07,3.4,2.61,2.16,4.32,5.56,4.32,10.66v20.77c0,.39-.36,.69-.81,.69h-4.95c-.45,0-.9-.31-.9-.69v-19.38c0-3.55-.9-6.41-2.7-8.11-1.71-1.62-4.23-2.39-7.38-2.39-3.33,0-6.3,1.08-8.19,3.71-1.71,2.47-2.34,5.64-2.34,9.57v16.6c0,.39-.36,.69-.81,.69h-4.95c-.45,0-.9-.31-.9-.69v-19.38c0-3.55-.9-6.41-2.7-8.11-1.71-1.62-4.23-2.39-7.38-2.39-3.33,0-6.3,1.08-8.19,3.71-1.44,2.08-2.34,5.17-2.34,8.8v17.37c0,.39-.36,.69-.81,.69h-4.95c-.45,0-.9-.31-.9-.69v-33.43c0-.39,.45-.77,.9-.77h4.59c.45,0,.9,.39,.9,.77v3.4h.27Z"/><path class="d" d="M237.5,644.73c-.63,.31-1.08,.15-1.26-.23l-1.53-2.86c-.27-.46-.18-.7,.45-1,4.14-2.39,9.9-3.63,15.48-3.63,3.87,0,8.64,.62,11.88,3.78,2.07,2.01,3.33,4.94,3.33,9.42v21.62c0,.39-.36,.69-.81,.69h-4.23c-.45,0-.81-.31-.81-.69v-1.24h-.36c-4.14,2.08-7.74,2.7-12.24,2.7-3.69,0-7.29-.77-10.08-2.47-2.7-1.7-4.59-4.25-4.59-7.8,0-4.79,3.42-7.49,8.37-9.11,5.49-1.78,12.78-2.24,18.18-2.47v-1.16c0-3.09-.63-4.94-2.07-6.41-1.8-1.78-4.68-2.32-7.38-2.32-5.13,0-8.91,1.47-12.33,3.17Zm21.78,21.85v-10.89c-4.23,.15-9.27,.39-13.41,1.39-3.87,.85-6.84,2.55-6.84,5.64,0,4.32,5.22,6.1,10.26,6.1,3.42,0,6.84-.85,9.99-2.24Z"/><path class="d" d="M330.47,666.42c.63-.39,1.17-.23,1.35,.15l1.8,2.86c.27,.39,0,.69-.45,1-3.24,1.85-7.92,2.86-12.69,2.86-6.84,0-12.51-1.85-16.29-5.25-3.6-3.09-5.58-7.57-5.58-12.89,0-4.63,1.71-8.57,4.59-11.5,4.14-4.32,10.44-6.64,17.37-6.64,4.77,0,9.18,1.16,12.42,3.09,.45,.31,.72,.62,.45,1l-1.89,2.93c-.27,.46-.72,.54-1.35,.23-3.15-1.7-6.21-2.39-9.63-2.39-4.68,0-8.91,1.54-11.7,4.4-2.25,2.24-3.6,5.25-3.6,8.88,0,4.01,1.53,7.34,4.14,9.73,2.61,2.39,6.48,3.71,11.25,3.71,3.42,0,6.66-.54,9.81-2.16Z"/><path class="d" d="M344.51,644.73c-.63,.31-1.08,.15-1.26-.23l-1.53-2.86c-.27-.46-.18-.7,.45-1,4.14-2.39,9.9-3.63,15.48-3.63,3.87,0,8.64,.62,11.88,3.78,2.07,2.01,3.33,4.94,3.33,9.42v21.62c0,.39-.36,.69-.81,.69h-4.23c-.45,0-.81-.31-.81-.69v-1.24h-.36c-4.14,2.08-7.74,2.7-12.24,2.7-3.69,0-7.29-.77-10.08-2.47-2.7-1.7-4.59-4.25-4.59-7.8,0-4.79,3.42-7.49,8.37-9.11,5.49-1.78,12.78-2.24,18.18-2.47v-1.16c0-3.09-.63-4.94-2.07-6.41-1.8-1.78-4.68-2.32-7.38-2.32-5.13,0-8.91,1.47-12.33,3.17Zm21.78,21.85v-10.89c-4.23,.15-9.27,.39-13.41,1.39-3.87,.85-6.84,2.55-6.84,5.64,0,4.32,5.22,6.1,10.26,6.1,3.42,0,6.84-.85,9.99-2.24Z"/><path class="d" d="M386.09,619.94h4.86c.45,0,.81,.39,.81,.77v51.11c0,.39-.36,.69-.81,.69h-4.86c-.45,0-.9-.31-.9-.69v-51.11c0-.39,.45-.77,.9-.77Z"/><path class="d" d="M405.62,619.94h4.86c.45,0,.81,.39,.81,.77v51.11c0,.39-.36,.69-.81,.69h-4.86c-.45,0-.9-.31-.9-.69v-51.11c0-.39,.45-.77,.9-.77Z"/><path class="d" d="M3.33,698.24c0-1.85,1.8-3.32,3.96-3.32s3.96,1.47,3.96,3.32-1.8,3.4-3.96,3.4-3.96-1.47-3.96-3.4Zm1.62,16.6h4.86c.45,0,.81,.39,.81,.77v33.43c0,.39-.36,.69-.81,.69H4.95c-.45,0-.9-.31-.9-.69v-33.43c0-.39,.45-.77,.9-.77Z"/><path class="d" d="M31.32,737.46c0,2.39,.36,4.32,1.35,5.64,1.17,1.7,3.15,2.55,6.39,2.55,2.43,0,4.77-.54,7.38-2.16,.63-.39,1.08-.31,1.35,.08l1.62,3.01c.27,.39,.09,.69-.36,1-3.15,1.93-7.29,2.93-11.61,2.93-4.86,0-8.01-1.31-9.99-3.4-2.07-2.24-2.79-5.48-2.79-8.96v-18.84h-4.77c-.45,0-.9-.31-.9-.69v-3.01c0-.39,.45-.77,.9-.77h4.77v-6.72c0-.39,.45-.77,.9-.77h4.86c.45,0,.9,.39,.9,.77v6.72h14.13c.45,0,.9,.39,.9,.77v3.01c0,.39-.45,.69-.9,.69h-14.13v18.14Z"/><path class="d" d="M54.27,707.5c-.36,.31-.9,.23-1.17-.15l-1.89-3.17c-.27-.39,0-.85,.45-1.16,3.42-2.7,9.9-6.56,19.53-6.56,5.22,0,9.99,1.47,13.32,4.09,3.51,2.63,5.58,6.41,5.58,10.96,0,6.02-3.78,9.19-9.27,12.51-6.66,4.17-8.19,6.56-8.37,11.27-.09,.54-.54,.77-1.08,.77h-3.33c-.45,0-.9-.23-1.08-.62-.36-1-.54-1.93-.54-3.09,0-2.55,1.53-5.33,4.14-7.64,2.16-2.01,4.95-3.63,8.28-6.02,2.88-2.08,4.41-4.25,4.41-7.18,0-3.09-1.35-5.64-3.69-7.34-2.16-1.7-5.22-2.63-8.73-2.63-7.56,0-12.6,3.09-16.56,5.95Zm15.03,43.01c-2.34,0-4.14-1.62-4.14-3.63s1.8-3.47,4.14-3.47,4.14,1.54,4.14,3.47-1.8,3.63-4.14,3.63Z"/></g></g></svg>